<svg
    xmlns="http://www.w3.org/2000/svg"
    viewBox="0 0 24 24"
    id="vector">
    <path
        id="path"
        d="M 2 0 L 22 0 C 22.53 0 23.039 0.211 23.414 0.586 C 23.789 0.961 24 1.47 24 2 L 24 22 C 24 22.53 23.789 23.039 23.414 23.414 C 23.039 23.789 22.53 24 22 24 L 2 24 C 1.47 24 0.961 23.789 0.586 23.414 C 0.211 23.039 0 22.53 0 22 L 0 2 C 0 1.47 0.211 0.961 0.586 0.586 C 0.961 0.211 1.47 0 2 0 Z"
        fill="#ebeff3"
        fill-opacity="0"
        
        stroke-opacity="0"
        stroke-width="1"
        fill-rule="evenodd"/>
    <path
        id="path_1"
        d="M 17.4 4 L 6.6 4 C 4.592 4 3 5.592 3 7.6 L 3 13.485 C 3 15.492 4.592 17.085 6.6 17.085 L 6.6 22 L 12 17.085 L 17.4 17.085 C 19.408 17.085 21 15.492 21 13.485 L 21 7.6 C 21 5.592 19.408 4 17.4 4 M 17.4 5.8 C 18.439 5.8 19.2 6.561 19.2 7.6 L 19.2 13.485 C 19.2 14.523 18.439 15.285 17.4 15.285 L 12 15.285 L 11.308 15.285 L 10.754 15.769 L 8.331 17.915 L 8.331 17.085 L 8.331 15.285 L 6.531 15.285 C 5.492 15.285 4.731 14.523 4.731 13.485 L 4.731 7.6 C 4.731 6.561 5.492 5.8 6.531 5.8 L 17.4 5.8"
        fill="#53627c"
        
        stroke-width="1"/>
</svg>
