<svg
    xmlns="http://www.w3.org/2000/svg"
    viewBox="0 0 24 24"
    id="vector">
    <path
        id="path"
        d="M 2 0 L 22 0 C 22.53 0 23.039 0.211 23.414 0.586 C 23.789 0.961 24 1.47 24 2 L 24 22 C 24 22.53 23.789 23.039 23.414 23.414 C 23.039 23.789 22.53 24 22 24 L 2 24 C 1.47 24 0.961 23.789 0.586 23.414 C 0.211 23.039 0 22.53 0 22 L 0 2 C 0 1.47 0.211 0.961 0.586 0.586 C 0.961 0.211 1.47 0 2 0 Z"
        fill="#ebeff3"
        fill-opacity="0"

        stroke-opacity="0"
        stroke-width="1"
        fill-rule="evenodd"/>
    <path
        id="path_1"
        d="M 8.461 10.874 L 8.461 10.874 C 7.923 11.982 7.692 13.237 7.769 14.418 C 7.923 15.305 8.308 15.895 8.539 16.043 C 8.769 15.822 9.231 15.083 9.231 13.975 C 9.308 12.868 8.923 11.834 8.461 10.874 M 8.539 17.815 C 8.154 17.815 7.769 17.668 7.385 17.52 C 6.615 17.003 6 15.895 5.846 14.64 C 5.615 13.163 5.923 11.539 6.615 10.135 C 6.769 9.914 6.846 9.618 7.077 9.397 C 6.692 9.175 6.308 9.101 5.923 9.175 C 5.154 9.397 4.154 10.726 3.923 12.572 L 2 12.351 C 2.308 9.914 3.692 7.92 5.308 7.403 C 6.308 7.108 7.385 7.255 8.308 7.92 C 8.539 7.699 8.692 7.551 8.923 7.403 C 9.692 6.739 10.692 6.148 11.769 6.148 C 13.077 6.148 14.231 7.034 14.692 8.437 C 15 9.545 15 9.84 14.923 10.579 C 14.923 10.8 14.846 11.095 14.846 11.465 C 14.769 12.203 14.923 12.351 14.923 12.425 C 15 12.498 15.154 12.572 15.231 12.646 C 15.385 12.572 15.461 12.425 15.692 12.055 C 15.923 11.76 16 11.465 16.154 11.317 C 16.385 11.021 16.462 10.8 16.615 10.357 C 17.154 8.732 17.846 7.846 18.846 7.477 C 20 6.96 21.077 7.255 21.923 7.551 L 21.231 9.249 C 20.462 9.028 20 9.028 19.615 9.101 C 19.231 9.323 18.846 9.914 18.385 10.948 C 18.154 11.612 17.923 11.982 17.692 12.277 C 17.538 12.498 17.462 12.646 17.385 12.941 C 17.154 13.385 16.615 14.197 15.692 14.566 C 15.231 14.714 14.769 14.64 14.385 14.418 C 13.154 13.754 12.769 13.237 12.846 11.539 C 12.846 11.095 12.923 10.8 12.923 10.505 C 13 9.988 13 9.84 12.692 9.175 C 12.385 8.511 12 8.142 11.692 8.142 L 11.692 8.142 C 11.231 8.142 10.539 8.585 10.077 8.954 C 9.846 9.101 9.692 9.249 9.461 9.471 C 9.615 9.692 9.692 9.766 9.769 9.988 C 10.539 11.169 10.923 12.72 10.923 14.123 C 10.846 15.748 10.154 17.668 8.692 17.963 C 8.846 17.741 8.692 17.815 8.539 17.815"
        fill="#53627c"

        stroke-width="1"/>
</svg>
