<svg
    xmlns="http://www.w3.org/2000/svg"
    viewBox="0 0 24 24"
    id="vector">
    <path
        id="path"
        d="M 2 0 L 22 0 C 22.53 0 23.039 0.211 23.414 0.586 C 23.789 0.961 24 1.47 24 2 L 24 22 C 24 22.53 23.789 23.039 23.414 23.414 C 23.039 23.789 22.53 24 22 24 L 2 24 C 1.47 24 0.961 23.789 0.586 23.414 C 0.211 23.039 0 22.53 0 22 L 0 2 C 0 1.47 0.211 0.961 0.586 0.586 C 0.961 0.211 1.47 0 2 0 Z"
        fill="#ebeff3"
        fill-opacity="0"

        stroke-opacity="0"
        stroke-width="1"
        fill-rule="evenodd"/>
    <path
        id="path_1"
        d="M 12 4.313 C 6.462 4.313 2 7.603 2 11.754 C 2 15.905 6.462 19.194 12 19.194 C 17.538 19.194 22 15.905 22 11.754 C 22 7.603 17.538 4.313 12 4.313 M 12 6.271 C 16.308 6.271 20 8.778 20 11.754 C 20 14.73 16.308 17.236 12 17.236 C 7.692 17.236 4 14.73 4 11.754 C 4 8.778 7.692 6.271 12 6.271"
        fill="#53627c"

        stroke-width="1"/>
</svg>
