<svg
    xmlns="http://www.w3.org/2000/svg"
    viewBox="0 0 24 24"
    id="vector">
    <path
        id="path"
        d="M 2 0 L 22 0 C 22.53 0 23.039 0.211 23.414 0.586 C 23.789 0.961 24 1.47 24 2 L 24 22 C 24 22.53 23.789 23.039 23.414 23.414 C 23.039 23.789 22.53 24 22 24 L 2 24 C 1.47 24 0.961 23.789 0.586 23.414 C 0.211 23.039 0 22.53 0 22 L 0 2 C 0 1.47 0.211 0.961 0.586 0.586 C 0.961 0.211 1.47 0 2 0 Z"
        fill="#ebeff3"
        fill-opacity="0"

        stroke-opacity="0"
        stroke-width="1"
        fill-rule="evenodd"/>
    <path
        id="path_1"
        d="M 3.4 19.6 L 3.4 18.8 L 4.6 18.8 L 4.6 19.6 L 3.4 19.6 Z M 15.733 19.933 L 15.733 18.733 L 17.333 18.733 L 17.333 19.933 L 15.733 19.933 Z M 12.533 19.933 L 12.533 18.733 L 14.133 18.733 L 14.133 19.933 L 12.533 19.933 Z M 9.333 19.933 L 9.333 18.733 L 10.933 18.733 L 10.933 19.933 L 9.333 19.933 Z M 6.2 19.933 L 6.2 18.733 L 7.8 18.733 L 7.8 19.933 L 6.2 19.933 Z M 18.867 19.6 L 18.867 18.8 L 20.067 18.8 L 20.067 19.6 L 18.867 19.6 Z M 10.267 11.933 L 10.267 10.733 L 11.867 10.733 L 11.867 11.933 L 10.267 11.933 Z M 7 11.933 L 7 10.733 L 8.6 10.733 L 8.6 11.933 L 7 11.933 Z M 12.733 15.533 L 12.733 14.733 L 13.933 14.733 L 13.933 15.533 L 12.733 15.533 Z M 15.467 15.533 L 15.467 14.733 L 17.067 14.733 L 17.067 15.533 L 15.467 15.533 Z M 18.667 15.533 L 18.667 14.733 L 19.867 14.733 L 19.867 15.533 L 18.667 15.533 Z M 3.667 15.533 L 3.667 14.733 L 5.267 14.733 L 5.267 15.533 L 3.667 15.533 Z M 3.733 4.933 L 3.733 3.333 L 20.067 3.333 L 20.067 4.933 L 3.733 4.933 Z M 3.733 7.867 L 3.733 7.067 L 16.4 7.067 L 16.4 7.867 L 3.733 7.867 Z M 9.133 14.667 L 19.333 6.6 L 20.4 7.8 L 9.133 16.733 L 3.067 11.2 L 4.133 10.067 L 9.133 14.667 Z"
        fill="#53627c"

        stroke-width="1"/>
</svg>
