<svg
    xmlns="http://www.w3.org/2000/svg"
    viewBox="0 0 24 24"
    id="vector">
    <path
        id="path"
        d="M 2 0 L 22 0 C 22.53 0 23.039 0.211 23.414 0.586 C 23.789 0.961 24 1.47 24 2 L 24 22 C 24 22.53 23.789 23.039 23.414 23.414 C 23.039 23.789 22.53 24 22 24 L 2 24 C 1.47 24 0.961 23.789 0.586 23.414 C 0.211 23.039 0 22.53 0 22 L 0 2 C 0 1.47 0.211 0.961 0.586 0.586 C 0.961 0.211 1.47 0 2 0 Z"
        fill="#ebeff3"
        fill-opacity="0"

        stroke-opacity="0"
        stroke-width="1"
        fill-rule="evenodd"/>
    <path
        id="path_1"
        d="M 8.2 15.377 L 18.933 5.373 L 19.533 5.962 L 7.133 17.6 L 6.333 19.169 L 20.933 19.169 L 20.933 20.804 L 3.6 20.804 L 12.067 4.261 L 13.6 4.981 L 8.2 15.377 Z M 8 18.646 L 7.6 17.992 L 8.667 17.338 L 9.067 17.992 L 8 18.646 Z M 16.667 13.677 L 16.267 13.023 L 17.733 12.173 L 18.133 12.827 L 16.667 13.677 Z M 13.6 15.442 L 13.2 14.789 L 14.667 13.938 L 15.067 14.592 L 13.6 15.442 Z M 10.6 17.208 L 10.2 16.554 L 11.667 15.704 L 12.067 16.358 L 10.6 17.208 Z M 19.267 11.258 L 20.333 10.604 L 20.733 11.258 L 19.667 11.912 L 19.267 11.258 Z M 17.667 17.404 L 17.467 16.619 L 19.067 16.227 L 19.267 17.012 L 17.667 17.404 Z M 14.467 18.189 L 14.267 17.404 L 15.867 17.012 L 16.067 17.796 L 14.467 18.189 Z M 11.2 18.908 L 11 18.123 L 12.6 17.731 L 12.8 18.515 L 11.2 18.908 Z"
        fill="#53627c"

        stroke-width="1"/>
</svg>
