<svg
    xmlns="http://www.w3.org/2000/svg"
    viewBox="0 0 24 24"
    id="vector">
    <path
        id="path"
        d="M 2 0 L 22 0 C 22.53 0 23.039 0.211 23.414 0.586 C 23.789 0.961 24 1.47 24 2 L 24 22 C 24 22.53 23.789 23.039 23.414 23.414 C 23.039 23.789 22.53 24 22 24 L 2 24 C 1.47 24 0.961 23.789 0.586 23.414 C 0.211 23.039 0 22.53 0 22 L 0 2 C 0 1.47 0.211 0.961 0.586 0.586 C 0.961 0.211 1.47 0 2 0 Z"
        fill="#ebeff3"
        fill-opacity="0"

        stroke-opacity="0"
        stroke-width="1"
        fill-rule="evenodd"/>
    <path
        id="path_1"
        d="M 19.2 4.385 L 19.2 3.208 L 20.861 3.208 L 20.861 4.385 L 19.2 4.385 Z M 15.808 4.385 L 15.808 3.208 L 17.469 3.208 L 17.469 4.385 L 15.808 4.385 Z M 10.269 12.139 L 10.269 11.308 L 20.585 11.308 L 20.585 12.139 L 10.269 12.139 Z M 19.754 20.723 L 19.754 19.546 L 21 19.546 L 21 20.723 L 19.754 20.723 Z M 16.361 20.723 L 16.361 19.546 L 18.023 19.546 L 18.023 20.723 L 16.361 20.723 Z M 13.039 20.723 L 13.039 19.546 L 14.7 19.546 L 14.7 20.723 L 13.039 20.723 Z M 9.715 20.723 L 9.715 19.546 L 11.377 19.546 L 11.377 20.723 L 9.715 20.723 Z M 6.392 20.723 L 6.392 19.546 L 8.054 19.546 L 8.054 20.723 L 6.392 20.723 Z M 3 20.723 L 3 19.546 L 4.662 19.546 L 4.662 20.723 L 3 20.723 Z M 6.808 16.639 L 6.808 14.908 L 20.515 14.908 L 20.515 16.639 L 6.808 16.639 Z M 13.662 8.885 L 13.662 7.154 L 20.585 7.154 L 20.585 8.885 L 13.662 8.885 Z"
        fill="#53627c"

        stroke-width="1"/>
</svg>
