<svg
    xmlns="http://www.w3.org/2000/svg"
    viewBox="0 0 24 24"
    id="vector">
    <path
        id="path"
        d="M 2 0 L 22 0 C 22.53 0 23.039 0.211 23.414 0.586 C 23.789 0.961 24 1.47 24 2 L 24 22 C 24 22.53 23.789 23.039 23.414 23.414 C 23.039 23.789 22.53 24 22 24 L 2 24 C 1.47 24 0.961 23.789 0.586 23.414 C 0.211 23.039 0 22.53 0 22 L 0 2 C 0 1.47 0.211 0.961 0.586 0.586 C 0.961 0.211 1.47 0 2 0 Z"
        fill="#ebeff3"
        fill-opacity="0"

        stroke-opacity="0"
        stroke-width="1"
        fill-rule="evenodd"/>
    <path
        id="path_1"
        d="M 11.8 9.267 L 11.8 8 L 12.6 8 L 12.6 9.267 L 11.8 9.267 Z M 11.8 7.133 L 11.8 5.733 L 12.6 5.733 L 12.6 7.133 L 11.8 7.133 Z M 11.8 4.867 L 11.8 3.6 L 12.6 3.6 L 12.6 4.867 L 11.8 4.867 Z M 11.8 20.933 L 11.8 19.667 L 12.6 19.667 L 12.6 20.933 L 11.8 20.933 Z M 11.8 18.267 L 11.8 16.733 L 12.6 16.733 L 12.6 18.267 L 11.8 18.267 Z M 11.8 15.333 L 11.8 14.067 L 12.6 14.067 L 12.6 15.333 L 11.8 15.333 Z M 15.467 6.867 L 15.467 5.6 L 16.267 5.6 L 16.267 6.867 L 15.467 6.867 Z M 15.467 4.867 L 15.467 3.6 L 16.267 3.6 L 16.267 4.867 L 15.467 4.867 Z M 15.467 20.933 L 15.467 19.667 L 16.267 19.667 L 16.267 20.933 L 15.467 20.933 Z M 15.467 18.067 L 15.467 16.4 L 16.267 16.4 L 16.267 18.067 L 15.467 18.067 Z M 15.467 14.733 L 15.467 13.467 L 16.267 13.467 L 16.267 14.733 L 15.467 14.733 Z M 19.133 20.733 L 19.133 19.467 L 19.933 19.467 L 19.933 20.733 L 19.133 20.733 Z M 19.133 8.133 L 19.133 6.467 L 19.933 6.467 L 19.933 8.133 L 19.133 8.133 Z M 19.133 11.4 L 19.133 9.8 L 19.933 9.8 L 19.933 11.4 L 19.133 11.4 Z M 19.133 14.667 L 19.133 13 L 19.933 13 L 19.933 14.667 L 19.133 14.667 Z M 19.133 17.933 L 19.133 16.267 L 19.933 16.267 L 19.933 17.933 L 19.133 17.933 Z M 19.133 4.867 L 19.133 3.6 L 19.933 3.6 L 19.933 4.867 L 19.133 4.867 Z M 5.733 13.6 L 17.667 8.6 L 18.267 10.067 L 5.8 15.267 L 5.8 20.533 L 4.2 20.533 L 4.2 3.867 L 5.8 3.867 L 5.8 13.6 L 5.733 13.6 Z M 8.133 20.733 L 8.133 15.467 L 8.933 15.467 L 8.933 20.733 L 8.133 20.733 Z M 8.133 11.333 L 8.133 3.667 L 8.933 3.667 L 8.933 11.333 L 8.133 11.333 Z"
        fill="#53627c"

        stroke-width="1"/>
</svg>
