<svg
    xmlns="http://www.w3.org/2000/svg"
    viewBox="0 0 24 24"
    id="vector">
    <path
        id="path"
        d="M 2 0 L 22 0 C 22.53 0 23.039 0.211 23.414 0.586 C 23.789 0.961 24 1.47 24 2 L 24 22 C 24 22.53 23.789 23.039 23.414 23.414 C 23.039 23.789 22.53 24 22 24 L 2 24 C 1.47 24 0.961 23.789 0.586 23.414 C 0.211 23.039 0 22.53 0 22 L 0 2 C 0 1.47 0.211 0.961 0.586 0.586 C 0.961 0.211 1.47 0 2 0 Z"
        fill="#ebeff3"
        fill-opacity="0"

        stroke-opacity="0"
        stroke-width="1"
        fill-rule="evenodd"/>
    <path
        id="path_1"
        d="M 15.769 19.916 L 14.923 19.916 L 14.923 19.468 C 14.923 17.974 13.692 16.703 12.077 16.703 C 10.461 16.703 9.231 17.899 9.231 19.468 L 9.231 19.916 L 8.385 19.916 L 8.385 19.468 C 8.385 17.451 10.077 15.807 12.154 15.807 C 14.231 15.807 15.923 17.451 15.923 19.468 L 15.923 19.916 L 15.769 19.916 Z M 11.154 13.565 L 11.077 12.743 L 11.539 12.743 C 11.692 12.743 11.846 12.743 12 12.743 C 12.154 12.743 12.231 12.743 12.461 12.743 L 12.923 12.743 L 12.846 13.565 L 12.385 13.565 C 12.231 13.565 12.154 13.565 12 13.565 C 11.846 13.565 11.769 13.565 11.615 13.565 L 11.154 13.565 Z M 15.077 14.312 L 14.692 14.163 C 14.461 14.013 14.231 13.938 13.923 13.864 L 13.539 13.714 L 13.769 12.967 L 14.154 13.117 C 14.385 13.191 14.769 13.341 15 13.415 L 15.385 13.64 L 15.077 14.312 Z M 8.846 14.387 L 8.461 13.64 L 8.846 13.415 C 9.077 13.266 9.385 13.191 9.692 13.117 L 10.077 12.967 L 10.308 13.714 L 9.923 13.864 C 9.692 13.938 9.461 14.088 9.154 14.163 L 8.846 14.387 Z M 16.846 15.881 L 16.615 15.582 C 16.385 15.358 16.308 15.209 16 15.059 L 15.692 14.835 L 16.308 14.163 L 16.615 14.387 C 16.846 14.611 17.077 14.76 17.308 15.059 L 17.538 15.358 L 16.846 15.881 Z M 7.154 15.881 L 6.462 15.284 L 6.692 14.985 C 6.923 14.76 7.077 14.536 7.385 14.312 L 7.692 14.088 L 8.308 14.76 L 8 14.985 C 7.769 15.209 7.615 15.284 7.462 15.508 L 7.154 15.881 Z M 17.923 17.899 L 17.769 17.525 C 17.692 17.301 17.538 17.077 17.462 16.778 L 17.231 16.404 L 18 16.031 L 18.231 16.404 C 18.385 16.629 18.462 16.927 18.538 17.226 L 18.692 17.6 L 17.923 17.899 Z M 6.077 17.974 L 5.308 17.75 L 5.462 17.376 C 5.538 17.152 5.692 16.778 5.769 16.554 L 6 16.18 L 6.769 16.554 L 6.538 16.927 C 6.385 17.152 6.308 17.376 6.231 17.675 L 6.077 17.974 Z M 19 19.916 L 18.154 19.916 L 18.154 19.468 C 18.154 19.319 18.154 19.244 18.154 19.095 L 18.154 18.646 L 19 18.571 L 19 19.02 C 19 19.169 19 19.319 19 19.468 L 19 19.916 Z M 13.308 10.426 L 12.846 10.352 C 12.615 10.352 12.308 10.277 12 10.277 L 11.539 10.277 L 11.539 9.455 L 12 9.455 C 12.308 9.455 12.615 9.455 12.923 9.53 L 13.385 9.604 L 13.308 10.426 Z M 9.154 10.8 L 8.923 9.978 L 9.308 9.829 C 9.539 9.754 9.923 9.679 10.154 9.604 L 10.539 9.53 L 10.692 10.352 L 10.308 10.426 C 10.077 10.501 9.769 10.576 9.539 10.65 L 9.154 10.8 Z M 15.769 11.099 L 15.385 10.875 C 15.154 10.8 14.846 10.65 14.615 10.65 L 14.231 10.501 L 14.461 9.679 L 14.846 9.829 C 15.077 9.903 15.461 10.053 15.692 10.053 L 16.077 10.202 L 15.769 11.099 Z M 6.846 11.771 L 6.385 11.024 L 6.769 10.8 C 7 10.65 7.308 10.576 7.538 10.426 L 7.923 10.202 L 8.308 10.95 L 7.923 11.174 C 7.692 11.323 7.462 11.398 7.154 11.547 L 6.846 11.771 Z M 17.846 12.369 L 17.538 12.145 C 17.308 11.996 17.077 11.846 16.846 11.697 L 16.462 11.473 L 16.923 10.725 L 17.308 10.95 C 17.538 11.099 17.846 11.248 18.077 11.473 L 18.385 11.697 L 17.846 12.369 Z M 5 13.415 L 4.385 12.818 L 4.692 12.519 C 4.923 12.294 5.154 12.145 5.385 11.921 L 5.692 11.697 L 6.231 12.369 L 5.923 12.593 C 5.692 12.818 5.538 12.967 5.308 13.191 L 5 13.415 Z M 19.615 14.088 L 19.385 13.789 C 19.154 13.565 19.077 13.415 18.846 13.191 L 18.538 12.892 L 19.154 12.294 L 19.462 12.593 C 19.692 12.818 19.846 13.042 20.077 13.266 L 20.308 13.565 L 19.615 14.088 Z M 3.615 15.358 L 2.846 14.985 L 3.077 14.611 C 3.231 14.387 3.385 14.088 3.538 13.864 L 3.769 13.565 L 4.538 14.013 L 4.308 14.312 C 4.154 14.536 4 14.76 3.846 15.059 L 3.615 15.358 Z M 20.615 15.807 L 20.385 15.433 C 20.308 15.284 20.231 15.209 20.231 15.209 L 20 14.835 L 20.769 14.461 L 21 14.835 C 21.077 14.985 21.154 15.059 21.231 15.134 L 21.462 15.508 L 20.615 15.807 Z M 3.231 9.978 L 2 8.782 L 2.692 8.185 C 5.231 5.868 8.539 4.523 12 4.523 C 15.461 4.523 18.769 5.793 21.308 8.185 L 22 8.782 L 20.769 9.978 L 20.077 9.38 C 17.846 7.363 14.923 6.242 11.923 6.242 C 8.846 6.242 6 7.363 3.769 9.38 L 3.231 9.978 Z"
        fill="#53627c"

        stroke-width="1"/>
    <path
        id="path_2"
        d="M 5.846 19.916 L 5 19.916 L 5 19.468 C 5 19.319 5 19.169 5 19.02 L 5 18.571 L 5.846 18.646 L 5.846 19.095 C 5.846 19.244 5.846 19.319 5.846 19.468 L 5.846 19.916 Z"
        fill="#53627c"

        stroke-width="1"/>
</svg>
