<svg
    xmlns="http://www.w3.org/2000/svg"
    viewBox="0 0 24 24"
    id="vector">
    <path
        id="path"
        d="M 2 0 L 22 0 C 22.53 0 23.039 0.211 23.414 0.586 C 23.789 0.961 24 1.47 24 2 L 24 22 C 24 22.53 23.789 23.039 23.414 23.414 C 23.039 23.789 22.53 24 22 24 L 2 24 C 1.47 24 0.961 23.789 0.586 23.414 C 0.211 23.039 0 22.53 0 22 L 0 2 C 0 1.47 0.211 0.961 0.586 0.586 C 0.961 0.211 1.47 0 2 0 Z"
        fill="#ebeff3"
        fill-opacity="0"

        stroke-opacity="0"
        stroke-width="1"
        fill-rule="evenodd"/>
    <path
        id="path_1"
        d="M 3 4.415 L 3 4.415 L 10.615 12.308 L 3 20.2 L 3 4.415 Z M 4.8 8.915 L 4.8 15.769 L 8.054 12.377 L 4.8 8.915 Z M 21 4.415 L 21 4.415 L 21 20.338 L 13.385 12.446 L 21 4.415 Z M 15.946 12.308 L 19.2 15.7 L 19.2 8.846 L 15.946 12.308 Z"
        fill="#53627c"

        stroke-width="1"/>
</svg>
