<svg
    xmlns="http://www.w3.org/2000/svg"
    viewBox="0 0 24 24"
    id="vector">
    <path
        id="path"
        d="M 2 0 L 22 0 C 22.53 0 23.039 0.211 23.414 0.586 C 23.789 0.961 24 1.47 24 2 L 24 22 C 24 22.53 23.789 23.039 23.414 23.414 C 23.039 23.789 22.53 24 22 24 L 2 24 C 1.47 24 0.961 23.789 0.586 23.414 C 0.211 23.039 0 22.53 0 22 L 0 2 C 0 1.47 0.211 0.961 0.586 0.586 C 0.961 0.211 1.47 0 2 0 Z"
        fill="#ebeff3"
        fill-opacity="0"

        stroke-opacity="0"
        stroke-width="1"
        fill-rule="evenodd"/>
    <path
        id="path_1"
        d="M 8.954 5.838 L 8.746 6.323 L 8.054 5.908 L 8.746 4.592 L 8.539 3.969 L 10.2 3.485 L 10.408 4.108 L 10.546 3.9 L 11.931 4.869 L 11.446 5.561 L 10.754 5.008 L 10.823 5.215 L 21 19.131 L 20.308 19.615 L 11.515 7.569 L 15.392 21.069 L 13.731 21.554 L 9.646 7.638 L 7.638 21.139 L 6.808 21 L 8.954 5.838 Z M 12.761 6.669 L 13.246 5.977 L 14.631 6.946 L 14.146 7.638 L 12.761 6.669 Z M 6.392 8.885 L 7.154 7.431 L 7.846 7.846 L 7.085 9.3 L 6.392 8.885 Z M 15.461 8.608 L 15.946 7.915 L 17.331 8.885 L 16.846 9.577 L 15.461 8.608 Z M 18.162 10.615 L 18.646 9.923 L 20.031 10.892 L 19.546 11.585 L 18.162 10.615 Z M 4.731 11.792 L 5.492 10.338 L 6.185 10.754 L 5.423 12.208 L 4.731 11.792 Z M 3.139 14.769 L 3.9 13.315 L 4.592 13.731 L 3.831 15.185 L 3.139 14.769 Z"
        fill="#53627c"

        stroke-width="1"/>
</svg>
