<svg
    xmlns="http://www.w3.org/2000/svg"
    viewBox="0 0 24 24"
    id="vector">
    <path
        id="path"
        d="M 2 0 L 22 0 C 22.53 0 23.039 0.211 23.414 0.586 C 23.789 0.961 24 1.47 24 2 L 24 22 C 24 22.53 23.789 23.039 23.414 23.414 C 23.039 23.789 22.53 24 22 24 L 2 24 C 1.47 24 0.961 23.789 0.586 23.414 C 0.211 23.039 0 22.53 0 22 L 0 2 C 0 1.47 0.211 0.961 0.586 0.586 C 0.961 0.211 1.47 0 2 0 Z"
        fill="#ebeff3"
        fill-opacity="0"

        stroke-opacity="0"
        stroke-width="1"
        fill-rule="evenodd"/>
    <path
        id="path_1"
        d="M 11.792 11.667 L 8.815 6.533 L 4.731 11.133 L 3.415 10.067 L 9.092 3.6 L 18.785 20.067 L 17.262 20.933 L 12.485 12.8 L 11.792 12.8 L 11.792 11.667 L 11.792 11.667 Z M 8.469 12.467 L 8.469 11.6 L 9.785 11.6 L 9.785 12.467 L 8.469 12.467 Z M 15.531 12.8 L 15.531 11.667 L 17.331 11.667 L 17.331 12.733 L 15.531 12.733 L 15.531 12.8 Z M 19.338 12.467 L 19.338 11.6 L 20.654 11.6 L 20.654 12.467 L 19.338 12.467 Z"
        fill="#53627c"

        stroke-width="1"/>
</svg>
