<svg
    xmlns="http://www.w3.org/2000/svg"
    viewBox="0 0 24 24"
    id="vector">
    <path
        id="path"
        d="M 2 0 L 22 0 C 22.53 0 23.039 0.211 23.414 0.586 C 23.789 0.961 24 1.47 24 2 L 24 22 C 24 22.53 23.789 23.039 23.414 23.414 C 23.039 23.789 22.53 24 22 24 L 2 24 C 1.47 24 0.961 23.789 0.586 23.414 C 0.211 23.039 0 22.53 0 22 L 0 2 C 0 1.47 0.211 0.961 0.586 0.586 C 0.961 0.211 1.47 0 2 0 Z"
        fill="#ebeff3"
        fill-opacity="0"

        stroke-opacity="0"
        stroke-width="1"
        fill-rule="evenodd"/>
    <path
        id="path_1"
        d="M 8.467 6.2 C 7.933 6.2 7.4 6.333 6.933 6.6 C 6 7.067 5.4 8.133 5.4 9.267 L 5.4 9.467 C 5.4 9.8 5.533 10.267 5.667 10.8 C 6.867 14.133 10.933 17.533 12.4 18.6 C 13.8 17.467 17.8 14.133 19 10.8 C 19.2 10.2 19.267 9.667 19.267 9.267 L 19.267 9.133 C 19.267 8 18.667 7 17.733 6.533 C 16.733 6 15.733 6 14.867 6.4 C 14 6.8 13.333 7.6 13.2 8.533 C 13.067 8.933 12.8 9.2 12.333 9.2 C 11.933 9.2 11.6 8.933 11.533 8.533 C 11.333 7.6 10.667 6.8 9.867 6.4 C 9.333 6.333 8.933 6.2 8.467 6.2 M 12.4 20.6 C 12.2 20.6 12.067 20.533 11.867 20.4 C 11.667 20.2 5.667 15.867 4.067 11.4 C 4.067 11.4 4 11.333 4 11.267 C 3.8 10.6 3.667 9.933 3.6 9.333 L 3.6 9.133 C 3.6 7.333 4.6 5.667 6.067 4.933 C 7.533 4.2 9.067 4.2 10.467 4.8 C 11.133 5.133 11.8 5.667 12.267 6.333 C 12.733 5.667 13.4 5.2 14.067 4.8 C 15.467 4.133 17 4.133 18.467 4.933 C 20 5.667 20.933 7.4 20.933 9.133 L 20.933 9.267 C 20.933 9.933 20.733 10.6 20.533 11.333 C 18.933 15.867 13.067 20.067 12.8 20.333 C 12.733 20.533 12.533 20.6 12.4 20.6"
        fill="#53627c"

        stroke-width="1"/>
</svg>
