<svg width="24" height="24" viewBox="0 0 24 24" fill="none" xmlns="http://www.w3.org/2000/svg">
<path fill-rule="evenodd" clip-rule="evenodd" d="M2 2V22H4V2H2ZM21.5359 7.27847L18.2196 4.08361L6.72842 15.1538L10.0448 18.3487L11.2756 17.1629L9.76447 15.7071L10.6287 14.8745L12.1398 16.3304L13.3517 15.1629L11.8405 13.7071L12.7047 12.8745L14.2159 14.3304L15.4277 13.1629L13.9166 11.7071L14.7808 10.8745L16.2919 12.3304L17.5038 11.1629L15.9926 9.70709L16.8568 8.87454L18.368 10.3303L19.5798 9.1629L18.0687 7.70709L18.9329 6.87454L20.444 8.33035L21.5359 7.27847ZM19.0838 3.25106L18.2196 2.4185L17.3554 3.25106L5.86421 14.3213L5 15.1538L5.86421 15.9864L9.18056 19.1812L10.0448 20.0138L10.909 19.1812L22.4001 8.11103L23.2643 7.27847L22.4001 6.44592L19.0838 3.25106Z" fill="#53627C"/>
</svg>
