<?xml version="1.0" encoding="UTF-8"?>
<svg id="Layer_2" data-name="Layer 2" xmlns="http://www.w3.org/2000/svg" xmlns:xlink="http://www.w3.org/1999/xlink" viewBox="0 0 26.1 30.1">
  <defs>
    <style>
      .cls-1 {
        clip-path: url(#clippath);
      }

      .cls-2 {
        fill: none;
      }

      .cls-2, .cls-3 {
        stroke-width: 0px;
      }

      .cls-4 {
        clip-path: url(#clippath-1);
      }

      .cls-3 {
        fill: #398dff;
      }
    </style>
    <clipPath id="clippath">
      <path class="cls-2" d="m20.8,4.5l-1.1,1.1,2.1,2.1-.7.7-2.1-2.1-1.1,1.1,2.1,2.1-.7.7-2.1-2.1-1.1,1.1,2.1,2.1-.7.7-2.1-2.1-1.1,1.1,2.1,2.1-.7.7-2.1-2.1-1.1,1.1,2.1,2.1-.7.7-2.1-2.1-1.1,1.1,2.1,2.1-.7.7-2.1-2.1-1.1,1.1,2.1,2.1-.7.7-2.1-2.1-1.1,1.1,3.9,3.9,13.4-13.4-3.6-4.2Zm0-1.4l5.3,5.3-14.8,14.8-5.3-5.3L20.8,3.1Z"/>
    </clipPath>
    <clipPath id="clippath-1">
      <rect class="cls-2" width="1.8" height="30.1"/>
    </clipPath>
  </defs>
  <g id="Layer_1-2" data-name="Layer 1">
    <g class="cls-1">
      <rect class="cls-3" x="4" y="1.1" width="24.2" height="24.2"/>
    </g>
    <g>
      <rect id="SVGID" class="cls-3" width="1.8" height="30.1"/>
      <g class="cls-4">
        <rect class="cls-3" x="-2.1" y="-2.1" width="5.9" height="34.3"/>
      </g>
    </g>
  </g>
</svg>