<svg
    xmlns="http://www.w3.org/2000/svg"
    viewBox="0 0 24 24"
    id="vector">
    <path
        id="path"
        d="M 2 0 L 22 0 C 22.53 0 23.039 0.211 23.414 0.586 C 23.789 0.961 24 1.47 24 2 L 24 22 C 24 22.53 23.789 23.039 23.414 23.414 C 23.039 23.789 22.53 24 22 24 L 2 24 C 1.47 24 0.961 23.789 0.586 23.414 C 0.211 23.039 0 22.53 0 22 L 0 2 C 0 1.47 0.211 0.961 0.586 0.586 C 0.961 0.211 1.47 0 2 0 Z"
        fill="#ebeff3"
        fill-opacity="0"

        stroke-opacity="0"
        stroke-width="1"
        fill-rule="evenodd"/>
    <path
        id="path_1"
        d="M 13.108 12.267 L 16.361 15.4 L 19.685 12.2 L 20.861 13.333 L 16.5 17.667 L 15.323 16.533 L 15.323 16.533 L 12.069 13.4 L 4.316 20.867 L 3.139 19.733 L 10.962 12.2 L 8.193 9.533 L 8.193 9.533 L 7.016 8.4 L 12.069 3.533 L 13.246 4.667 L 9.369 8.4 L 12.139 11.067 L 19.823 3.667 L 21 4.8 Z"
        fill="#53627c"

        stroke-width="1"/>
</svg>
