<svg
    xmlns="http://www.w3.org/2000/svg"
    viewBox="0 0 24 24"
    id="vector">
    <path
        id="path"
        d="M 2 0 L 22 0 C 22.53 0 23.039 0.211 23.414 0.586 C 23.789 0.961 24 1.47 24 2 L 24 22 C 24 22.53 23.789 23.039 23.414 23.414 C 23.039 23.789 22.53 24 22 24 L 2 24 C 1.47 24 0.961 23.789 0.586 23.414 C 0.211 23.039 0 22.53 0 22 L 0 2 C 0 1.47 0.211 0.961 0.586 0.586 C 0.961 0.211 1.47 0 2 0 Z"
        fill="#ebeff3"
        fill-opacity="0"

        stroke-opacity="0"
        stroke-width="1"
        fill-rule="evenodd"/>
    <path
        id="path_1"
        d="M 2.769 12.846 L 2.769 10.846 L 21.231 10.846 L 21.231 12.846 L 2.769 12.846 Z M 2 21.538 L 2 20.538 L 3.538 20.538 L 3.538 21.538 L 2 21.538 Z M 16.692 21.846 L 16.692 20.538 L 18.615 20.538 L 18.615 21.846 L 16.692 21.846 Z M 12.923 21.846 L 12.923 20.538 L 14.846 20.538 L 14.846 21.846 L 12.923 21.846 Z M 9.154 21.846 L 9.154 20.538 L 11.077 20.538 L 11.077 21.846 L 9.154 21.846 Z M 5.308 21.846 L 5.308 20.538 L 7.231 20.538 L 7.231 21.846 L 5.308 21.846 Z M 20.462 21.538 L 20.462 20.538 L 22 20.538 L 22 21.538 L 20.462 21.538 Z M 2 3.154 L 2 2.154 L 3.538 2.154 L 3.538 3.154 L 2 3.154 Z M 16.692 3.462 L 16.692 2.154 L 18.615 2.154 L 18.615 3.462 L 16.692 3.462 Z M 12.923 3.462 L 12.923 2.154 L 14.846 2.154 L 14.846 3.462 L 12.923 3.462 Z M 9.154 3.462 L 9.154 2.154 L 11.077 2.154 L 11.077 3.462 L 9.154 3.462 Z M 5.308 3.462 L 5.308 2.154 L 7.231 2.154 L 7.231 3.462 L 5.308 3.462 Z M 20.462 3.154 L 20.462 2.154 L 22 2.154 L 22 3.154 L 20.462 3.154 Z M 2.769 6.769 L 2.769 5.769 L 21.231 5.769 L 21.231 6.769 L 2.769 6.769 Z M 3 17.923 L 3 16.923 L 21.077 16.923 L 21.077 17.923 L 3 17.923 Z"
        fill="#53627c"

        stroke-width="1"/>
</svg>
