<svg
    xmlns="http://www.w3.org/2000/svg"
    viewBox="0 0 24 24"
    id="vector">
    <path
        id="path"
        d="M 2 0 L 22 0 C 22.53 0 23.039 0.211 23.414 0.586 C 23.789 0.961 24 1.47 24 2 L 24 22 C 24 22.53 23.789 23.039 23.414 23.414 C 23.039 23.789 22.53 24 22 24 L 2 24 C 1.47 24 0.961 23.789 0.586 23.414 C 0.211 23.039 0 22.53 0 22 L 0 2 C 0 1.47 0.211 0.961 0.586 0.586 C 0.961 0.211 1.47 0 2 0 Z"
        fill="#ebeff3"
        fill-opacity="0"

        stroke-opacity="0"
        stroke-width="1"
        fill-rule="evenodd"/>
    <path
        id="path_1"
        d="M 16.846 8.559 L 18.092 8.559 L 18.092 9.756 L 16.5 9.756 L 4.246 17.496 L 3.415 16.018 L 13.315 9.685 L 13.108 9.685 L 13.108 8.489 L 14.769 8.489 L 14.769 8.77 L 15.6 8.207 L 15.6 6.941 L 16.777 6.941 L 16.846 8.559 L 16.846 8.559 Z M 19.823 9.756 L 19.823 8.559 L 20.861 8.559 L 20.861 9.756 L 19.823 9.756 Z M 9.854 9.756 L 9.854 8.559 L 11.515 8.559 L 11.515 9.756 L 9.854 9.756 Z M 6.462 9.756 L 6.462 8.559 L 8.123 8.559 L 8.123 9.756 L 6.462 9.756 Z M 3.139 9.756 L 3.139 8.559 L 4.8 8.559 L 4.8 9.756 L 3.139 9.756 Z M 15.669 5.322 L 15.669 3.633 L 16.846 3.633 L 16.846 5.322 L 15.669 5.322 Z M 15.669 12.219 L 15.669 10.53 L 16.846 10.53 L 16.846 12.219 L 15.669 12.219 Z M 15.669 15.667 L 15.669 13.978 L 16.846 13.978 L 16.846 15.667 L 15.669 15.667 Z M 15.669 19.115 L 15.669 17.426 L 16.846 17.426 L 16.846 19.115 L 15.669 19.115 Z M 15.669 21.859 L 15.669 20.804 L 16.846 20.804 L 16.846 21.859 L 15.669 21.859 Z"
        fill="#53627c"

        stroke-width="1"/>
</svg>
