<svg
    xmlns="http://www.w3.org/2000/svg"
    viewBox="0 0 24 24"
    id="vector">
    <path
        id="path"
        d="M 2 0 L 22 0 C 22.53 0 23.039 0.211 23.414 0.586 C 23.789 0.961 24 1.47 24 2 L 24 22 C 24 22.53 23.789 23.039 23.414 23.414 C 23.039 23.789 22.53 24 22 24 L 2 24 C 1.47 24 0.961 23.789 0.586 23.414 C 0.211 23.039 0 22.53 0 22 L 0 2 C 0 1.47 0.211 0.961 0.586 0.586 C 0.961 0.211 1.47 0 2 0 Z"
        fill="#ebeff3"
        fill-opacity="0"

        stroke-opacity="0"
        stroke-width="1"
        fill-rule="evenodd"/>
    <path
        id="path_1"
        d="M 20.1 10.546 L 3.9 15.6 L 3.9 13.523 L 20.1 8.469 L 20.1 3.485 L 21 3.485 L 21 14.977 L 20.1 14.977 L 20.1 10.546 Z M 3 20.238 L 3 8.746 L 3.9 8.746 L 3.9 20.238 L 3 20.238 Z"
        fill="#53627c"

        stroke-width="1"/>
</svg>
