<svg
    xmlns="http://www.w3.org/2000/svg"
    viewBox="0 0 24 24"
    id="vector">
    <path
        id="path"
        d="M 2 0 L 22 0 C 22.53 0 23.039 0.211 23.414 0.586 C 23.789 0.961 24 1.47 24 2 L 24 22 C 24 22.53 23.789 23.039 23.414 23.414 C 23.039 23.789 22.53 24 22 24 L 2 24 C 1.47 24 0.961 23.789 0.586 23.414 C 0.211 23.039 0 22.53 0 22 L 0 2 C 0 1.47 0.211 0.961 0.586 0.586 C 0.961 0.211 1.47 0 2 0 Z"
        fill="#ebeff3"
        fill-opacity="0"

        stroke-opacity="0"
        stroke-width="1"
        fill-rule="evenodd"/>
    <path
        id="path_1"
        d="M 5.852 18.741 L 7.111 18.074 L 7.481 18.815 L 6 19.556 L 5.63 18.815 L 4.889 19.556 L 4.296 20.741 L 4 20.593 L 3.704 20.741 L 3.482 20.37 L 2.667 20 L 11.704 2.074 L 13.333 2.815 L 6.148 17.111 L 21.333 2.074 L 22 2.741 L 5.852 18.741 Z M 18.074 13.704 L 17.704 12.963 L 19.185 12.222 L 19.556 12.963 L 18.074 13.704 Z M 15.037 15.185 L 14.667 14.444 L 16.148 13.704 L 16.518 14.444 L 15.037 15.185 Z M 12 16.741 L 11.63 16 L 13.111 15.259 L 13.482 16 L 12 16.741 Z M 9.037 18.222 L 8.667 17.482 L 10.148 16.741 L 10.518 17.482 L 9.037 18.222 Z M 20.667 11.333 L 21.482 10.963 L 21.852 11.704 L 21.037 12.074 L 20.667 11.333 Z"
        fill="#53627c"

        stroke-width="1"/>
</svg>
