<svg
    xmlns="http://www.w3.org/2000/svg"
    viewBox="0 0 24 24"
    id="vector">
    <path
        id="path"
        d="M 2 0 L 22 0 C 22.53 0 23.039 0.211 23.414 0.586 C 23.789 0.961 24 1.47 24 2 L 24 22 C 24 22.53 23.789 23.039 23.414 23.414 C 23.039 23.789 22.53 24 22 24 L 2 24 C 1.47 24 0.961 23.789 0.586 23.414 C 0.211 23.039 0 22.53 0 22 L 0 2 C 0 1.47 0.211 0.961 0.586 0.586 C 0.961 0.211 1.47 0 2 0 Z"
        fill="#ebeff3"
        fill-opacity="0"

        stroke-opacity="0"
        stroke-width="1"
        fill-rule="evenodd"/>
    <path
        id="path_1"
        d="M 10.667 14.704 L 12.889 17.741 L 12.148 18.259 L 9.926 15.222 C 9.185 15.889 8.741 16.778 8.741 17.815 L 6.889 17.815 C 6.889 16.185 7.63 14.778 8.815 13.815 L 7.111 11.593 C 6.741 11.889 6.37 12.333 5.926 12.704 L 5.185 12.111 C 5.556 11.667 6 11.222 6.444 10.852 L 6.519 10.926 L 2.593 5.741 L 3.333 5.222 L 9.407 13.296 C 10.222 12.778 11.259 12.482 12.37 12.482 C 15.407 12.482 18 14.926 18 17.889 L 16.148 17.889 C 16.148 15.889 14.518 14.333 12.444 14.333 C 11.852 14.185 11.185 14.333 10.667 14.704 Z M 4.074 17.741 L 3.111 17.741 C 3.111 17.444 3.111 17.074 3.185 16.778 L 4.074 16.852 C 4.074 17.148 4.074 17.518 4.074 17.741 Z M 11.704 9.593 L 11.63 8.704 C 12.222 8.63 12.815 8.63 13.482 8.704 L 13.407 9.593 C 12.815 9.518 12.222 9.518 11.704 9.593 Z M 16.518 10.482 C 16 10.259 15.482 10.037 14.963 9.889 L 15.185 9.074 C 15.778 9.296 16.37 9.444 16.889 9.815 L 16.518 10.482 Z M 8.518 10.556 L 8.074 9.815 C 8.593 9.593 9.185 9.296 9.778 9.074 L 10 9.889 C 9.556 10.037 9.037 10.333 8.518 10.556 Z M 19.111 12.556 C 18.741 12.185 18.37 11.815 17.926 11.37 L 18.518 10.63 C 18.963 11 19.407 11.37 19.778 11.815 L 19.111 12.556 Z M 20.593 15.296 C 20.37 14.778 20.222 14.259 19.926 13.815 L 20.741 13.37 C 21.037 13.889 21.259 14.482 21.482 15 L 20.593 15.296 Z M 4.444 15.37 L 3.556 15.148 C 3.778 14.556 4 14.037 4.296 13.518 L 5.111 13.963 C 4.815 14.333 4.593 14.852 4.444 15.37 Z M 22 17.741 L 21.037 17.741 C 21.037 17.518 21.037 17.148 20.963 16.926 L 21.852 16.852 C 22 17.074 22 17.444 22 17.741 Z"
        fill="#53627c"

        stroke-width="1"/>
</svg>
