<svg
    xmlns="http://www.w3.org/2000/svg"
    viewBox="0 0 24 24"
    id="vector">
    <path
        id="path"
        d="M 2 0 L 22 0 C 22.53 0 23.039 0.211 23.414 0.586 C 23.789 0.961 24 1.47 24 2 L 24 22 C 24 22.53 23.789 23.039 23.414 23.414 C 23.039 23.789 22.53 24 22 24 L 2 24 C 1.47 24 0.961 23.789 0.586 23.414 C 0.211 23.039 0 22.53 0 22 L 0 2 C 0 1.47 0.211 0.961 0.586 0.586 C 0.961 0.211 1.47 0 2 0 Z"
        fill="#ebeff3"
        fill-opacity="0"

        stroke-opacity="0"
        stroke-width="1"
        fill-rule="evenodd"/>
    <path
        id="path_1"
        d="M 3 11.861 L 3.485 10.2 L 16.846 14.146 L 16.361 15.808 L 3 11.861 Z M 17.746 19.2 L 17.746 17.954 L 19.477 17.954 L 19.477 19.2 L 17.746 19.2 Z M 14.285 19.2 L 14.285 17.954 L 16.015 17.954 L 16.015 19.2 L 14.285 19.2 Z M 10.823 19.2 L 10.823 17.954 L 12.554 17.954 L 12.554 19.2 L 10.823 19.2 Z M 7.362 19.2 L 7.362 17.954 L 9.092 17.954 L 9.092 19.2 L 7.362 19.2 Z M 3.9 19.2 L 3.9 17.954 L 5.631 17.954 L 5.631 19.2 L 3.9 19.2 Z M 19.754 4.385 L 19.754 3.069 L 20.654 3.069 L 20.654 4.385 L 19.754 4.385 Z M 19.754 7.708 L 19.754 6.046 L 21 6.046 L 21 7.708 L 19.754 7.708 Z M 19.754 11.031 L 19.754 9.369 L 21 9.369 L 21 11.031 L 19.754 11.031 Z M 19.754 14.285 L 19.754 12.623 L 21 12.623 L 21 14.285 L 19.754 14.285 Z M 19.754 17.677 L 19.754 16.015 L 21 16.015 L 21 17.677 L 19.754 17.677 Z M 19.754 20.654 L 19.754 19.338 L 20.654 19.338 L 20.654 20.654 L 19.754 20.654 Z"
        fill="#53627c"

        stroke-width="1"/>
</svg>
