<svg
    xmlns="http://www.w3.org/2000/svg"
    viewBox="0 0 24 24"
    id="vector">
    <path
        id="path"
        d="M 2 0 L 22 0 C 22.53 0 23.039 0.211 23.414 0.586 C 23.789 0.961 24 1.47 24 2 L 24 22 C 24 22.53 23.789 23.039 23.414 23.414 C 23.039 23.789 22.53 24 22 24 L 2 24 C 1.47 24 0.961 23.789 0.586 23.414 C 0.211 23.039 0 22.53 0 22 L 0 2 C 0 1.47 0.211 0.961 0.586 0.586 C 0.961 0.211 1.47 0 2 0 Z"
        fill="#ebeff3"
        fill-opacity="0"

        stroke-opacity="0"
        stroke-width="1"
        fill-rule="evenodd"/>
    <path
        id="path_1"
        d="M 12 3.485 L 14.769 9.023 L 21 9.923 L 16.5 14.215 L 17.608 20.308 L 12 17.4 L 6.392 20.308 L 7.5 14.215 L 3 9.923 L 9.231 9.023 L 12 3.485 Z M 9.162 14.423 L 8.677 17.192 L 11.169 15.877 L 11.931 15.461 L 12.692 15.877 L 15.185 17.192 L 14.7 14.423 L 14.492 13.592 L 15.185 12.969 L 17.192 11.031 L 14.354 10.615 L 13.454 10.477 L 13.039 9.715 L 11.792 7.223 L 10.546 9.715 L 10.131 10.477 L 9.231 10.615 L 6.392 11.031 L 8.4 12.969 L 9.092 13.592 L 9.162 14.423 Z"
        fill="#53627c"

        stroke-width="1"/>
</svg>
