<svg
    xmlns="http://www.w3.org/2000/svg"
    viewBox="0 0 24 24"
    id="vector">
    <path
        id="path"
        d="M 2 0 L 22 0 C 22.53 0 23.039 0.211 23.414 0.586 C 23.789 0.961 24 1.47 24 2 L 24 22 C 24 22.53 23.789 23.039 23.414 23.414 C 23.039 23.789 22.53 24 22 24 L 2 24 C 1.47 24 0.961 23.789 0.586 23.414 C 0.211 23.039 0 22.53 0 22 L 0 2 C 0 1.47 0.211 0.961 0.586 0.586 C 0.961 0.211 1.47 0 2 0 Z"
        fill="#ebeff3"
        fill-opacity="0"

        stroke-opacity="0"
        stroke-width="1"
        fill-rule="evenodd"/>
    <path
        id="path_1"
        d="M 20.238 21.554 L 20.238 3.554 L 20.723 3.554 L 20.723 21.554 L 20.238 21.554 Z M 11.861 21.554 L 11.861 3.554 L 12.761 3.554 L 12.761 21.554 L 11.861 21.554 Z M 16.223 21.554 L 16.223 3.554 L 16.708 3.554 L 16.708 21.554 L 16.223 21.554 Z M 3.277 21.554 L 3.277 3.554 L 5.146 3.554 L 5.146 21.554 L 3.277 21.554 Z M 7.777 21.554 L 7.777 3.554 L 8.677 3.554 L 8.677 21.554 L 7.777 21.554 Z"
        fill="#53627c"

        stroke-width="1"/>
</svg>
