<svg width="24" height="24" viewBox="0 0 24 24" fill="none" xmlns="http://www.w3.org/2000/svg">
<path fill-rule="evenodd" clip-rule="evenodd" d="M22 7.5C22 8.88071 20.8807 10 19.5 10C18.9592 10 18.4586 9.82831 18.0495 9.53646L6.97952 16.1785C6.99303 16.2837 7 16.3911 7 16.5C7 17.8807 5.88071 19 4.5 19C3.11929 19 2 17.8807 2 16.5C2 15.1193 3.11929 14 4.5 14C5.04076 14 5.54143 14.1717 5.95045 14.4635L17.0205 7.82152C17.007 7.71625 17 7.60894 17 7.5C17 6.11929 18.1193 5 19.5 5C20.8807 5 22 6.11929 22 7.5Z" fill="#53627C"/>
</svg>
