<svg xmlns="http://www.w3.org/2000/svg" width="70" height="1" viewBox="0 0 70 1" fill="none">
    <mask id="mask0_1_330" style="mask-type:luminance" maskUnits="userSpaceOnUse" x="0" y="0" width="2" height="1">
        <path d="M0.160919 1H1.93103V3.91448e-08H0.160919V1Z" fill="white"/>
    </mask>
    <g mask="url(#mask0_1_330)">
        <path d="M-6.50575 -3.7931H8.59771V4.7931H-6.50575V-3.7931Z" fill="#53627C"/>
    </g>
    <mask id="mask1_1_330" style="mask-type:luminance" maskUnits="userSpaceOnUse" x="14" y="0" width="3" height="1">
        <path d="M14.3218 1H16.092V3.91448e-08H14.3218V1Z" fill="white"/>
    </mask>
    <g mask="url(#mask1_1_330)">
        <path d="M7.65517 -3.7931H22.7586V4.7931H7.65517V-3.7931Z" fill="#53627C"/>
    </g>
    <mask id="mask2_1_330" style="mask-type:luminance" maskUnits="userSpaceOnUse" x="28" y="0" width="3" height="1">
        <path d="M28.4828 1H30.2529V3.91448e-08H28.4828V1Z" fill="white"/>
    </mask>
    <g mask="url(#mask2_1_330)">
        <path d="M21.8161 -3.7931H36.9195V4.7931H21.8161V-3.7931Z" fill="#53627C"/>
    </g>
    <mask id="mask3_1_330" style="mask-type:luminance" maskUnits="userSpaceOnUse" x="42" y="0" width="3" height="1">
        <path d="M42.6437 1H44.4138V3.91448e-08H42.6437V1Z" fill="white"/>
    </mask>
    <g mask="url(#mask3_1_330)">
        <path d="M35.977 -3.7931H51.0805V4.7931H35.977V-3.7931Z" fill="#53627C"/>
    </g>
    <mask id="mask4_1_330" style="mask-type:luminance" maskUnits="userSpaceOnUse" x="56" y="0" width="3" height="1">
        <path d="M56.8046 1H58.5747V3.91448e-08H56.8046V1Z" fill="white"/>
    </mask>
    <g mask="url(#mask4_1_330)">
        <path d="M50.1379 -3.7931H65.2414V4.7931H50.1379V-3.7931Z" fill="#53627C"/>
    </g>
    <mask id="mask5_1_330" style="mask-type:luminance" maskUnits="userSpaceOnUse" x="7" y="0" width="3" height="1">
        <path d="M7.24137 1H9.01149V3.91448e-08H7.24137V1Z" fill="white"/>
    </mask>
    <g mask="url(#mask5_1_330)">
        <path d="M0.574706 -3.7931H15.6782V4.7931H0.574706V-3.7931Z" fill="#53627C"/>
    </g>
    <mask id="mask6_1_330" style="mask-type:luminance" maskUnits="userSpaceOnUse" x="21" y="0" width="3" height="1">
        <path d="M21.4023 1H23.1724V3.91448e-08H21.4023V1Z" fill="white"/>
    </mask>
    <g mask="url(#mask6_1_330)">
        <path d="M14.7356 -3.7931H29.8391V4.7931H14.7356V-3.7931Z" fill="#53627C"/>
    </g>
    <mask id="mask7_1_330" style="mask-type:luminance" maskUnits="userSpaceOnUse" x="35" y="0" width="3" height="1">
        <path d="M35.5632 1H37.3333V3.91448e-08H35.5632V1Z" fill="white"/>
    </mask>
    <g mask="url(#mask7_1_330)">
        <path d="M28.8965 -3.7931H44V4.7931H28.8965V-3.7931Z" fill="#53627C"/>
    </g>
    <mask id="mask8_1_330" style="mask-type:luminance" maskUnits="userSpaceOnUse" x="49" y="0" width="3" height="1">
        <path d="M49.7241 1H51.4942V3.91448e-08H49.7241V1Z" fill="white"/>
    </mask>
    <g mask="url(#mask8_1_330)">
        <path d="M43.0575 -3.7931H58.1609V4.7931H43.0575V-3.7931Z" fill="#53627C"/>
    </g>
    <mask id="mask9_1_330" style="mask-type:luminance" maskUnits="userSpaceOnUse" x="63" y="0" width="3" height="1">
        <path d="M63.8851 1H65.6552V3.91448e-08H63.8851V1Z" fill="white"/>
    </mask>
    <g mask="url(#mask9_1_330)">
        <path d="M57.2184 -3.7931H72.3218V4.7931H57.2184V-3.7931Z" fill="#53627C"/>
    </g>
    <mask id="mask10_1_330" style="mask-type:luminance" maskUnits="userSpaceOnUse" x="3" y="0" width="3" height="1">
        <path d="M3.70115 1H5.47126V3.91448e-08H3.70115V1Z" fill="white"/>
    </mask>
    <g mask="url(#mask10_1_330)">
        <path d="M-2.96552 -3.7931H12.1379V4.7931H-2.96552V-3.7931Z" fill="#53627C"/>
    </g>
    <mask id="mask11_1_330" style="mask-type:luminance" maskUnits="userSpaceOnUse" x="17" y="0" width="3" height="1">
        <path d="M17.8621 1H19.6322V3.91448e-08H17.8621V1Z" fill="white"/>
    </mask>
    <g mask="url(#mask11_1_330)">
        <path d="M11.1954 -3.7931H26.2989V4.7931H11.1954V-3.7931Z" fill="#53627C"/>
    </g>
    <mask id="mask12_1_330" style="mask-type:luminance" maskUnits="userSpaceOnUse" x="32" y="0" width="2" height="1">
        <path d="M32.023 1H33.7931V3.91448e-08H32.023V1Z" fill="white"/>
    </mask>
    <g mask="url(#mask12_1_330)">
        <path d="M25.3563 -3.7931H40.4598V4.7931H25.3563V-3.7931Z" fill="#53627C"/>
    </g>
    <mask id="mask13_1_330" style="mask-type:luminance" maskUnits="userSpaceOnUse" x="46" y="0" width="2" height="1">
        <path d="M46.1839 1H47.954V3.91448e-08H46.1839V1Z" fill="white"/>
    </mask>
    <g mask="url(#mask13_1_330)">
        <path d="M39.5172 -3.7931H54.6207V4.7931H39.5172V-3.7931Z" fill="#53627C"/>
    </g>
    <mask id="mask14_1_330" style="mask-type:luminance" maskUnits="userSpaceOnUse" x="60" y="0" width="3" height="1">
        <path d="M60.3448 1H62.1149V3.91448e-08H60.3448V1Z" fill="white"/>
    </mask>
    <g mask="url(#mask14_1_330)">
        <path d="M53.6782 -3.7931H68.7816V4.7931H53.6782V-3.7931Z" fill="#53627C"/>
    </g>
    <mask id="mask15_1_330" style="mask-type:luminance" maskUnits="userSpaceOnUse" x="10" y="0" width="3" height="1">
        <path d="M10.7816 1H12.5517V3.91448e-08H10.7816V1Z" fill="white"/>
    </mask>
    <g mask="url(#mask15_1_330)">
        <path d="M4.11495 -3.7931H19.2184V4.7931H4.11495V-3.7931Z" fill="#53627C"/>
    </g>
    <mask id="mask16_1_330" style="mask-type:luminance" maskUnits="userSpaceOnUse" x="24" y="0" width="3" height="1">
        <path d="M24.9425 1H26.7126V3.91448e-08H24.9425V1Z" fill="white"/>
    </mask>
    <g mask="url(#mask16_1_330)">
        <path d="M18.2759 -3.7931H33.3793V4.7931H18.2759V-3.7931Z" fill="#53627C"/>
    </g>
    <mask id="mask17_1_330" style="mask-type:luminance" maskUnits="userSpaceOnUse" x="39" y="0" width="2" height="1">
        <path d="M39.1035 1H40.8736V3.91448e-08H39.1035V1Z" fill="white"/>
    </mask>
    <g mask="url(#mask17_1_330)">
        <path d="M32.4368 -3.7931H47.5402V4.7931H32.4368V-3.7931Z" fill="#53627C"/>
    </g>
    <mask id="mask18_1_330" style="mask-type:luminance" maskUnits="userSpaceOnUse" x="53" y="0" width="3" height="1">
        <path d="M53.2644 1H55.0345V3.91448e-08H53.2644V1Z" fill="white"/>
    </mask>
    <g mask="url(#mask18_1_330)">
        <path d="M46.5977 -3.7931H61.7011V4.7931H46.5977V-3.7931Z" fill="#53627C"/>
    </g>
    <mask id="mask19_1_330" style="mask-type:luminance" maskUnits="userSpaceOnUse" x="67" y="0" width="3" height="1">
        <path d="M67.4253 1H69.1954V3.91448e-08H67.4253V1Z" fill="white"/>
    </mask>
    <g mask="url(#mask19_1_330)">
        <path d="M60.7586 -3.7931H75.8621V4.7931H60.7586V-3.7931Z" fill="#53627C"/>
    </g>
</svg>