<svg width="120" height="112" viewBox="0 0 120 112" xmlns="http://www.w3.org/2000/svg">
    <g fill-rule="nonzero" fill="none">
        <g fill="#EBEFF3">
            <path d="M36.429 56c-.008 2.376-1.923 4.3-4.286 4.308v25.846H60V56H36.429zM73.414 56l-11.55-24.123a4.157 4.157 0 0 1-1.864.43V56h13.414zM85.993 82.277 73.413 56H60v30.154h23.571a4.323 4.323 0 0 1 2.422-3.877zM60 32.308a4.178 4.178 0 0 1-3.022-1.27L35.165 52.962A4.22 4.22 0 0 1 36.429 56H60V32.308zM32.143 86.154H60v23.692H32.143zM90.642 82.902a4.253 4.253 0 0 1 1.5 3.252h21.43V60.308a4.14 4.14 0 0 1-2.786-1.056l-20.144 23.65zM83.571 86.154H60v23.692h27.857V90.462c-2.363-.008-4.278-1.932-4.286-4.308zM87.857 90.462v19.384h25.714V86.154H92.143c-.007 2.376-1.922 4.3-4.286 4.308zM32.143 60.308a4.14 4.14 0 0 1-2.785-1.056L9.214 82.902a4.253 4.253 0 0 1 1.5 3.252h21.429V60.308zM10.714 86.154c-.007 2.376-1.922 4.3-4.285 4.308v19.384h25.714V86.154H10.714z"/>
        </g>
        <path d="M115.714 49.937V0H4.286v80.089a6.42 6.42 0 0 0-4.288 6.065 6.42 6.42 0 0 0 4.288 6.065V112h111.428V62.063A6.419 6.419 0 0 0 120 56a6.419 6.419 0 0 0-4.286-6.063zm-4.285-.015a6.462 6.462 0 0 0-3.9 3.924H90V30.154h21.429v19.768zM81.81 84H62.143V58.154h9.923L83.3 81.63A6.405 6.405 0 0 0 81.81 84zm-69.347 0a6.292 6.292 0 0 0-.478-1.038l17.837-20.944.178.063V84H12.463zM53.96 30.154c.072.21.156.417.252.618L34.899 50.184a6.22 6.22 0 0 0-.613-.253V30.154H53.96zm12.087 0h19.667v23.692H74.76L64.558 32.534a6.405 6.405 0 0 0 1.489-2.38zm19.667 46.573-8.89-18.573h8.89v18.573zm-47.53-22.88a5.754 5.754 0 0 0-.253-.62l19.313-19.411c.2.096.405.18.613.253v19.777H38.183zm23.959-16.42 7.86 16.42h-7.86v-16.42zM60 25.847a2.144 2.144 0 0 1 2.087 1.598c.253.95-.167 1.95-1.018 2.431a2.133 2.133 0 0 1-2.597-.384A2.067 2.067 0 0 1 57.857 28c0-1.19.96-2.154 2.143-2.154zm-27.857 28a2.085 2.085 0 0 1 1.527.66c.4.393.62.932.616 1.493a2.178 2.178 0 0 1-1.28 1.918c-.756.34-1.64.216-2.276-.32A2.104 2.104 0 0 1 30 56c0-1.19.96-2.154 2.143-2.154zm2.143 8.218a6.44 6.44 0 0 0 3.891-3.911h19.68V84H34.286V62.065zm53.571 26.243a2.156 2.156 0 0 1-.906-4.103 2.02 2.02 0 0 1 .906-.205 2.066 2.066 0 0 1 1.413.555c.464.4.731.985.73 1.599 0 1.19-.96 2.154-2.143 2.154zm2.297-8.143L90 80.108V58.154h17.529a4.7 4.7 0 0 0 .47 1.056L90.155 80.165zm21.275-75.857v21.538H90V4.308h21.429zm-25.715 0v21.538h-19.68a6.44 6.44 0 0 0-3.891-3.911V4.308h23.571zm-27.857 0v17.627a6.44 6.44 0 0 0-3.891 3.911h-19.68V4.308h23.571zm-49.286 0H30v21.538H8.571V4.308zm0 25.846H30v19.78a6.44 6.44 0 0 0-3.891 3.912H8.57V30.154zm17.546 28c.126.36.283.706.472 1.036L8.743 80.142c-.055-.02-.116-.032-.172-.053V58.154h17.546zM6.43 84c1.183 0 2.142.964 2.142 2.154s-.959 2.154-2.142 2.154a2.148 2.148 0 0 1-2.143-2.154c0-1.19.96-2.154 2.143-2.154zm2.142 23.692V92.22a6.44 6.44 0 0 0 3.892-3.911H30v19.384H8.571zm25.715 0V88.308h23.571v19.384H34.286zm27.857-19.384h19.68a6.44 6.44 0 0 0 3.891 3.91v15.474H62.143V88.308zm49.286 19.384H90V92.22a6.44 6.44 0 0 0 3.891-3.911h17.538v19.384zM93.883 84a6.158 6.158 0 0 0-.472-1.036l17.836-20.934h.01c.055.022.116.029.172.05V84H93.883zm19.688-25.867a2.055 2.055 0 0 1-1.414-.539 2.115 2.115 0 0 1-.728-1.594c0-1.19.959-2.154 2.142-2.154 1.184 0 2.143.965 2.143 2.154a2.21 2.21 0 0 1-2.143 2.133z" fill="#DADFE3"/>
    </g>
</svg>