<svg
        xmlns="http://www.w3.org/2000/svg"
        viewBox="0 0 120 112"
        id="vector">
    <path
            id="path"
            d="M 36.429 56 C 36.421 58.376 34.506 60.3 32.143 60.308 L 32.143 86.154 L 60 86.154 L 60 56 L 36.429 56 Z"
            fill="#091924"

            stroke-width="1"/>
    <path
            id="path_1"
            d="M 73.414 56 L 61.865 31.877 C 61.284 32.164 60.647 32.311 60 32.308 L 60 56 L 73.414 56 Z"
            fill="#091924"

            stroke-width="1"/>
    <path
            id="path_2"
            d="M 85.993 82.277 L 73.414 56 L 60 56 L 60 86.154 L 83.571 86.154 C 83.576 84.503 84.515 82.998 85.993 82.277 Z"
            fill="#091924"

            stroke-width="1"/>
    <path
            id="path_3"
            d="M 60 32.308 C 58.863 32.314 57.772 31.855 56.978 31.037 L 35.165 52.963 C 35.979 53.761 36.435 54.857 36.429 56 L 60 56 L 60 32.308 Z"
            fill="#091924"
            stroke-width="1"/>
    <path
            id="path_4"
            d="M 32.143 86.154 L 60 86.154 L 60 109.846 L 32.143 109.846 Z"
            fill="#091924"

            stroke-width="1"/>
    <path
            id="path_5"
            d="M 90.642 82.902 C 91.596 83.71 92.145 84.9 92.143 86.154 L 113.571 86.154 L 113.571 60.308 C 112.545 60.314 111.553 59.938 110.786 59.252 L 90.642 82.902 Z"
            fill="#091924"

            stroke-width="1"/>
    <path
            id="path_6"
            d="M 83.571 86.154 L 60 86.154 L 60 109.846 L 87.857 109.846 L 87.857 90.462 C 85.494 90.454 83.579 88.53 83.571 86.154 Z"
            fill="#091924"

            stroke-width="1"/>
    <path
            id="path_7"
            d="M 87.857 90.462 L 87.857 109.846 L 113.571 109.846 L 113.571 86.154 L 92.143 86.154 C 92.136 88.53 90.221 90.454 87.857 90.462 Z"
            fill="#091924"

            stroke-width="1"/>
    <path
            id="path_8"
            d="M 32.143 60.308 C 31.116 60.314 30.125 59.938 29.358 59.252 L 9.214 82.902 C 10.167 83.71 10.716 84.9 10.714 86.154 L 32.143 86.154 L 32.143 60.308 Z"
            fill="#091924"

            stroke-width="1"/>
    <path
            id="path_9"
            d="M 10.714 86.154 C 10.707 88.53 8.792 90.454 6.429 90.462 L 6.429 109.846 L 32.143 109.846 L 32.143 86.154 L 10.714 86.154 Z"
            fill="#091924"

            stroke-width="1"/>
    <path
            id="path_10"
            d="M 115.714 49.937 L 115.714 0 L 4.286 0 L 4.286 80.089 C 1.718 80.988 -0.002 83.422 -0.002 86.154 C -0.002 88.886 1.718 91.32 4.286 92.219 L 4.286 112 L 115.714 112 L 115.714 62.063 C 118.281 61.164 120 58.731 120 56 C 120 53.269 118.281 50.836 115.714 49.937 Z M 111.429 49.922 C 109.609 50.576 108.178 52.017 107.529 53.846 L 90 53.846 L 90 30.154 L 111.429 30.154 L 111.429 49.922 Z M 81.81 84 L 62.143 84 L 62.143 58.154 L 72.066 58.154 L 83.299 81.631 C 82.635 82.3 82.126 83.109 81.81 84 L 81.81 84 Z M 12.463 84 C 12.335 83.64 12.175 83.292 11.985 82.962 L 29.822 62.018 L 30 62.081 L 30 84 L 12.463 84 Z M 53.96 30.154 C 54.032 30.364 54.116 30.571 54.212 30.772 L 34.899 50.184 C 34.699 50.088 34.494 50.004 34.286 49.931 L 34.286 30.154 L 53.96 30.154 Z M 66.047 30.154 L 85.714 30.154 L 85.714 53.846 L 74.76 53.846 L 64.558 32.534 C 65.223 31.861 65.733 31.048 66.047 30.154 Z M 85.714 76.727 L 76.824 58.154 L 85.714 58.154 L 85.714 76.727 Z M 38.183 53.846 C 38.111 53.636 38.027 53.429 37.931 53.228 L 57.244 33.816 C 57.444 33.912 57.649 33.996 57.857 34.069 L 57.857 53.846 L 38.183 53.846 Z M 62.143 37.427 L 70.003 53.846 L 62.143 53.846 L 62.143 37.427 Z M 60 25.846 C 60.977 25.839 61.836 26.496 62.087 27.445 C 62.34 28.394 61.92 29.395 61.069 29.876 C 60.218 30.359 59.149 30.201 58.472 29.492 C 58.074 29.1 57.852 28.561 57.857 28 C 57.857 26.811 58.817 25.846 60 25.846 Z M 32.143 53.846 C 32.721 53.845 33.274 54.084 33.67 54.508 C 34.069 54.9 34.291 55.439 34.286 56 C 34.26 56.833 33.763 57.578 33.006 57.918 C 32.25 58.258 31.365 58.134 30.73 57.599 C 30.266 57.199 29.999 56.614 30 56 C 30 54.811 30.959 53.846 32.143 53.846 Z M 34.286 62.065 C 36.101 61.414 37.529 59.979 38.177 58.154 L 57.857 58.154 L 57.857 84 L 34.286 84 L 34.286 62.065 Z M 87.857 88.308 C 86.855 88.306 85.987 87.604 85.771 86.621 C 85.553 85.637 86.044 84.633 86.951 84.205 C 87.234 84.067 87.543 83.997 87.857 84 C 88.381 83.999 88.886 84.198 89.27 84.555 C 89.734 84.955 90.001 85.54 90 86.154 C 90 87.343 89.041 88.308 87.857 88.308 L 87.857 88.308 Z M 90.154 80.165 L 90 80.108 L 90 58.154 L 107.529 58.154 C 107.642 58.524 107.8 58.878 108 59.21 L 90.154 80.165 Z M 111.429 4.308 L 111.429 25.846 L 90 25.846 L 90 4.308 L 111.429 4.308 Z M 85.714 4.308 L 85.714 25.846 L 66.034 25.846 C 65.386 24.021 63.958 22.586 62.143 21.935 L 62.143 4.308 L 85.714 4.308 Z M 57.857 4.308 L 57.857 21.935 C 56.042 22.586 54.614 24.021 53.966 25.846 L 34.286 25.846 L 34.286 4.308 L 57.857 4.308 Z M 8.571 4.308 L 30 4.308 L 30 25.846 L 8.571 25.846 L 8.571 4.308 Z M 8.571 30.154 L 30 30.154 L 30 49.935 C 28.185 50.586 26.756 52.021 26.109 53.846 L 8.571 53.846 L 8.571 30.154 Z M 26.117 58.154 C 26.243 58.514 26.4 58.86 26.589 59.19 L 8.743 80.142 C 8.688 80.121 8.627 80.11 8.571 80.089 L 8.571 58.154 L 26.117 58.154 Z M 6.429 84 C 7.612 84 8.571 84.964 8.571 86.154 C 8.571 87.343 7.612 88.308 6.429 88.308 C 5.245 88.308 4.286 87.343 4.286 86.154 C 4.286 84.964 5.245 84 6.429 84 Z M 8.571 107.692 L 8.571 92.219 C 10.387 91.568 11.815 90.132 12.463 88.308 L 30 88.308 L 30 107.692 L 8.571 107.692 Z M 34.286 107.692 L 34.286 88.308 L 57.857 88.308 L 57.857 107.692 L 34.286 107.692 Z M 62.143 88.308 L 81.823 88.308 C 82.471 90.132 83.899 91.568 85.714 92.219 L 85.714 107.692 L 62.143 107.692 L 62.143 88.308 Z M 111.429 107.692 L 90 107.692 L 90 92.219 C 91.815 91.568 93.244 90.132 93.891 88.308 L 111.429 88.308 L 111.429 107.692 Z M 93.883 84 C 93.757 83.64 93.6 83.294 93.411 82.964 L 111.247 62.03 L 111.257 62.03 C 111.312 62.052 111.373 62.059 111.429 62.081 L 111.429 84 L 93.883 84 Z M 113.571 58.133 C 113.049 58.14 112.544 57.948 112.157 57.594 C 111.695 57.195 111.43 56.612 111.429 56 C 111.429 54.811 112.388 53.846 113.571 53.846 C 114.755 53.846 115.714 54.811 115.714 56 C 115.671 57.167 114.734 58.101 113.571 58.133 Z"
            fill="#273843"

            stroke-width="1"/>
</svg>
