<svg
    xmlns="http://www.w3.org/2000/svg"
    viewBox="0 0 16 24"
    id="vector">
    <path
        id="path"
        d="M 8.304 23.827 C 8.328 23.808 8.35 23.787 8.37 23.765 L 15.757 16.985 C 15.993 16.78 16.007 16.435 15.788 16.213 C 15.68 16.103 15.528 16.04 15.368 16.038 L 11.48 16.038 L 11.48 7.253 C 11.48 6.925 11.402 6.561 11.091 6.561 L 4.871 6.561 C 4.476 6.604 4.159 6.886 4.093 7.253 L 4.093 16.038 L 0.593 16.038 C 0.361 16.043 0.151 16.17 0.05 16.366 L 0.05 16.585 C 0.056 16.737 0.126 16.881 0.244 16.985 L 7.592 23.765 C 7.771 23.967 8.089 23.995 8.304 23.827 Z M 11.675 4.92 C 11.675 4.619 11.414 4.374 11.091 4.374 L 4.871 4.374 C 4.549 4.374 4.287 4.619 4.287 4.921 C 4.287 5.223 4.549 5.468 4.871 5.468 L 11.09 5.468 C 11.413 5.468 11.674 5.223 11.674 4.921 Z M 11.675 2.734 C 11.675 2.432 11.414 2.187 11.091 2.187 L 4.871 2.187 C 4.549 2.187 4.287 2.432 4.287 2.734 C 4.287 3.036 4.549 3.281 4.871 3.281 L 11.09 3.281 C 11.413 3.281 11.674 3.036 11.674 2.734 Z M 11.675 0.547 C 11.675 0.245 11.414 0 11.091 0 L 4.871 0 C 4.549 0 4.287 0.245 4.287 0.547 C 4.287 0.849 4.549 1.094 4.871 1.094 L 11.09 1.094 C 11.413 1.094 11.674 0.849 11.674 0.547 Z"
        fill="#53627c"/>
</svg>
