<svg
    xmlns="http://www.w3.org/2000/svg"
    viewBox="0 0 24 16"
    id="vector">
    <path
        id="path"
        d="M 0.173 8.304 C 0.192 8.328 0.213 8.35 0.235 8.37 L 7.015 15.757 C 7.22 15.993 7.565 16.007 7.787 15.788 C 7.897 15.68 7.96 15.528 7.962 15.368 L 7.962 11.48 L 16.747 11.48 C 17.075 11.48 17.439 11.402 17.439 11.091 L 17.439 4.871 C 17.396 4.476 17.114 4.159 16.747 4.093 L 7.962 4.093 L 7.962 0.593 C 7.957 0.361 7.83 0.151 7.634 0.05 L 7.415 0.05 C 7.263 0.056 7.119 0.126 7.015 0.244 L 0.235 7.592 C 0.033 7.771 0.005 8.089 0.173 8.304 Z M 19.08 11.675 C 19.381 11.675 19.626 11.414 19.626 11.091 L 19.626 4.871 C 19.626 4.549 19.381 4.287 19.079 4.287 C 18.777 4.287 18.532 4.549 18.532 4.871 L 18.532 11.09 C 18.532 11.413 18.777 11.674 19.079 11.674 Z M 21.266 11.675 C 21.568 11.675 21.813 11.414 21.813 11.091 L 21.813 4.871 C 21.813 4.549 21.568 4.287 21.266 4.287 C 20.964 4.287 20.719 4.549 20.719 4.871 L 20.719 11.09 C 20.719 11.413 20.964 11.674 21.266 11.674 Z M 23.453 11.675 C 23.755 11.675 24 11.414 24 11.091 L 24 4.871 C 24 4.549 23.755 4.287 23.453 4.287 C 23.151 4.287 22.906 4.549 22.906 4.871 L 22.906 11.09 C 22.906 11.413 23.151 11.674 23.453 11.674 Z"
        fill="#53627c"/>
</svg>
