<svg
    xmlns="http://www.w3.org/2000/svg"
    viewBox="0 0 25 23"
    id="vector">
    <path
        id="path"
        d="M 3.543 22.613 L 21.578 22.613 C 22.242 22.613 22.816 22.469 23.301 22.18 C 23.785 21.891 24.158 21.502 24.42 21.014 C 24.682 20.525 24.812 19.98 24.812 19.379 C 24.812 19.113 24.775 18.844 24.701 18.57 C 24.627 18.297 24.519 18.035 24.379 17.785 L 15.344 2.047 C 15.039 1.508 14.637 1.1 14.137 0.822 C 13.637 0.545 13.113 0.406 12.566 0.406 C 12.019 0.406 11.494 0.545 10.99 0.822 C 10.486 1.1 10.082 1.508 9.777 2.047 L 0.742 17.797 C 0.453 18.297 0.309 18.824 0.309 19.379 C 0.309 19.98 0.439 20.525 0.701 21.014 C 0.963 21.502 1.336 21.891 1.82 22.18 C 2.305 22.469 2.879 22.613 3.543 22.613 Z M 3.555 20.773 C 3.148 20.773 2.822 20.631 2.576 20.346 C 2.33 20.061 2.207 19.738 2.207 19.379 C 2.207 19.27 2.219 19.154 2.242 19.033 C 2.266 18.912 2.305 18.793 2.359 18.676 L 11.383 2.938 C 11.516 2.711 11.687 2.545 11.898 2.439 C 12.109 2.334 12.332 2.281 12.566 2.281 C 12.793 2.281 13.01 2.334 13.217 2.439 C 13.424 2.545 13.594 2.711 13.727 2.938 L 22.738 18.688 C 22.863 18.906 22.926 19.137 22.926 19.379 C 22.926 19.738 22.799 20.061 22.545 20.346 C 22.291 20.631 21.961 20.773 21.555 20.773 L 3.555 20.773 Z M 12.566 14.703 C 13.152 14.703 13.449 14.395 13.457 13.777 L 13.633 7.59 C 13.641 7.293 13.541 7.045 13.334 6.846 C 13.127 6.646 12.867 6.547 12.555 6.547 C 12.234 6.547 11.975 6.645 11.775 6.84 C 11.576 7.035 11.48 7.281 11.488 7.578 L 11.641 13.777 C 11.656 14.395 11.965 14.703 12.566 14.703 Z M 12.566 18.512 C 12.902 18.512 13.197 18.395 13.451 18.16 C 13.705 17.926 13.832 17.637 13.832 17.293 C 13.832 16.949 13.707 16.66 13.457 16.426 C 13.207 16.191 12.91 16.074 12.566 16.074 C 12.223 16.074 11.926 16.193 11.676 16.432 C 11.426 16.67 11.301 16.957 11.301 17.293 C 11.301 17.629 11.426 17.916 11.676 18.154 C 11.926 18.393 12.223 18.512 12.566 18.512 Z"
        fill="#ff3b30"
        stroke-width="0"/>
</svg>
