<svg xmlns="http://www.w3.org/2000/svg" id="vector" viewBox="9.5 5.5 12.98 12.98">
    <path id="path"
        d="M 10.382 17.979 C 10.283 17.979 10.185 17.94 10.113 17.867 C 10.018 17.773 9.98 17.636 10.013 17.506 L 10.728 14.636 C 10.745 14.569 10.779 14.507 10.828 14.459 L 18.878 6.408 C 19.423 5.864 20.309 5.864 20.854 6.408 L 21.572 7.127 C 22.116 7.671 22.116 8.557 21.572 9.102 L 13.522 17.152 C 13.473 17.201 13.412 17.236 13.345 17.252 L 10.474 17.967 C 10.444 17.976 10.413 17.979 10.382 17.979 Z M 11.441 14.922 L 10.905 17.075 L 13.057 16.539 L 21.034 8.563 C 21.281 8.316 21.281 7.912 21.034 7.665 L 20.315 6.947 C 20.067 6.699 19.664 6.699 19.417 6.947 L 11.441 14.922 Z M 13.282 16.921 L 13.304 16.921 L 13.282 16.921 Z"
        fill="#53627c" stroke="#00000000" stroke-width="1"></path>
    <path id="path_1"
        d="M 20.064 10.453 C 19.966 10.453 19.869 10.415 19.795 10.341 L 17.64 8.186 C 17.491 8.037 17.491 7.796 17.64 7.647 C 17.788 7.498 18.03 7.498 18.178 7.647 L 20.334 9.803 C 20.483 9.951 20.483 10.193 20.334 10.341 C 20.259 10.415 20.161 10.453 20.064 10.453 Z"
        fill="#53627c" stroke="#00000000" stroke-width="1"></path>
    <path id="path_2" d="M 19.867 6.294 L 21.672 8.101 L 19.87 9.773 L 18.063 7.871 Z" fill="#53627c" stroke="#00000000"
        stroke-width="1" fill-rule="evenodd"></path>
</svg>