<svg xmlns="http://www.w3.org/2000/svg" width="32" height="32" viewBox="0 0 32 32">
    <g fill="none" fill-rule="evenodd">
        <g fill="#53627C" fill-rule="nonzero">
            <path d="M17.952 12.385V11.04C17.952 8.812 16.11 7 13.845 7s-4.107 1.812-4.107 4.039v3.141H7v1.795h2.738v8.976h1.825v-8.976h2.738V14.18h-2.738V11.04c0-1.237 1.024-2.244 2.282-2.244s2.282 1.007 2.282 2.244v1.346h1.825zM23.695 16.478l-3.005 2.955-3.005-2.955-1.291 1.269 3.005 2.956-3.005 2.955 1.29 1.27 3.006-2.956 3.005 2.955 1.29-1.269-3.004-2.955 3.005-2.956z"/>
        </g>
    </g>
</svg>