<svg xmlns="http://www.w3.org/2000/svg" width="32" height="32" viewBox="0 0 32 32">
    <g xmlns="http://www.w3.org/2000/svg" fill="#EBEFF3" fill-rule="nonzero">
        <path d="M12.652 7.348c1.464 1.465 1.464 3.839 0 5.304-1.465 1.464-3.84 1.464-5.304 0-1.464-1.465-1.464-3.84 0-5.304 1.465-1.464 3.839-1.464 5.304 0" transform="translate(6 6)"/>
        <path d="M20 8.75h-1.35c-.55-3.824-3.576-6.85-7.4-7.4V0h-2.5v1.35c-3.824.55-6.85 3.576-7.4 7.4H0v2.5h1.35c.55 3.824 3.576 6.85 7.4 7.4V20h2.5v-1.35c3.824-.55 6.85-3.576 7.4-7.4H20v-2.5zm-10 7.5c-3.446 0-6.25-2.804-6.25-6.25S6.554 3.75 10 3.75s6.25 2.804 6.25 6.25-2.804 6.25-6.25 6.25z" transform="translate(6 6)"/>
    </g>
</svg>