<svg xmlns="http://www.w3.org/2000/svg" width="32" height="32" viewBox="0 0 32 32">
    <g fill="none" fill-rule="evenodd">
        <g fill="#53627C" fill-rule="nonzero">
            <path d="M15.985 12.24a3.749 3.749 0 0 0-3.744 3.745 3.749 3.749 0 0 0 3.744 3.745 3.749 3.749 0 0 0 3.745-3.745 3.749 3.749 0 0 0-3.745-3.744zm0 6.242a2.5 2.5 0 0 1-2.496-2.497 2.5 2.5 0 0 1 2.496-2.496 2.5 2.5 0 0 1 2.497 2.496 2.5 2.5 0 0 1-2.497 2.497z"/>
            <path d="M24.691 15.361A8.738 8.738 0 0 0 16.61 7.28V6H15.36v1.28A8.738 8.738 0 0 0 7.28 15.36H6v1.249h1.28a8.739 8.739 0 0 0 8.081 8.081v1.28h1.249v-1.28a8.739 8.739 0 0 0 8.081-8.082h1.28v-1.248h-1.28zm-8.706 8.114c-4.13 0-7.489-3.36-7.489-7.49 0-4.13 3.36-7.489 7.49-7.489 4.13 0 7.488 3.36 7.488 7.49 0 4.13-3.359 7.489-7.489 7.489z"/>
        </g>
    </g>
</svg>