<svg xmlns="http://www.w3.org/2000/svg" width="32" height="32" viewBox="0 0 32 32">
    <g fill="none" fill-rule="evenodd">
        <path d="M23.062 8.938A3.18 3.18 0 0 0 20.8 8a3.18 3.18 0 0 0-2.264.938l-8.947 8.946a.625.625 0 0 0-.16.275l-1.405 5.048a.625.625 0 0 0 .773.77l5.048-1.435a.625.625 0 0 0 .272-1.042l-3.183-3.193 7.416-7.416 2.759 2.758-7.712 7.565a.625.625 0 0 0-.001.883c.243.245.427.554.67.31l8.997-8.942A3.18 3.18 0 0 0 24 11.201a3.18 3.18 0 0 0-.938-2.263zM12.482 21.63l-2.956.84.828-2.974 2.127 2.134zm9.697-9.05-.186.186-2.76-2.759.186-.185a1.938 1.938 0 0 1 1.38-.572c.52 0 1.01.203 1.38.572.368.368.571.858.571 1.38 0 .52-.203 1.01-.57 1.378z" fill="#FFF" fill-rule="nonzero"/>
    </g>
</svg>