<svg xmlns="http://www.w3.org/2000/svg" viewBox="6.16 6.14 19.67 19.72">
    <g fill="none" fill-rule="evenodd">
        <g fill="#53627C" fill-rule="nonzero">
            <path
                d="M18.294 6.139c.35 0 .64.25.7.581l.012.127v1.227c0 1.16 1.207 1.906 2.238 1.442l.147-.075 1.068-.613a.715.715 0 0 1 .898.155l.074.105 2.301 3.963a.706.706 0 0 1-.155.895l-.106.073-1.068.613a1.574 1.574 0 0 0-.158 2.632l.158.104 1.068.613a.707.707 0 0 1 .315.852l-.054.116-2.301 3.963a.714.714 0 0 1-.856.313l-.116-.053-1.068-.613c-1.013-.582-2.265.085-2.377 1.204l-.008.163v1.227a.71.71 0 0 1-.584.697l-.128.011h-4.603c-.349 0-.64-.25-.7-.58l-.011-.128v-1.227c0-1.16-1.207-1.906-2.239-1.442l-.146.075-1.068.613a.715.715 0 0 1-.898-.155l-.074-.105-2.301-3.963a.706.706 0 0 1 .155-.894l.105-.074 1.068-.613a1.574 1.574 0 0 0 .159-2.632l-.159-.104-1.068-.613a.707.707 0 0 1-.315-.852l.055-.116 2.3-3.963a.714.714 0 0 1 .857-.313l.116.053 1.068.613c1.013.582 2.265-.085 2.376-1.204l.009-.163V6.847a.71.71 0 0 1 .584-.697l.127-.011h4.603zm-.712 1.417h-3.18l.001.518c0 2.236-2.356 3.657-4.33 2.696l-.19-.1-.452-.262-1.59 2.736.453.26c1.94 1.115 2.007 3.841.2 5.066l-.2.125-.452.26L9.43 21.59l.453-.259c1.947-1.118 4.363.2 4.512 2.382l.007.213v.517h3.179v-.517c0-2.236 2.356-3.657 4.33-2.696l.19.101.45.258 1.59-2.735-.45-.259c-1.941-1.114-2.007-3.84-.2-5.065l.2-.125.45-.26-1.59-2.735-.45.26c-1.947 1.117-4.363-.201-4.512-2.383l-.008-.213v-.518z" />
            <path
                d="M15.993 11.874c2.288 0 4.15 1.85 4.15 4.126 0 2.276-1.862 4.127-4.15 4.127-2.288 0-4.15-1.851-4.15-4.127s1.862-4.126 4.15-4.126zm0 1.417A2.72 2.72 0 0 0 13.267 16a2.72 2.72 0 0 0 2.726 2.71A2.72 2.72 0 0 0 18.719 16a2.72 2.72 0 0 0-2.726-2.71z" />
        </g>
    </g>
</svg>