<svg xmlns="http://www.w3.org/2000/svg" version="1.1" width="120pt" height="120pt" viewBox="0 0 120 120">
    <defs>
        <clipPath id="clip_0">
            <path transform="matrix(1,0,0,-1,0,120)"
                d="M117.6562 2.457054H2.34375V117.5439L117.6562 2.457054ZM22.5 22.57401H69.61121L22.5 69.59338V22.57401Z" />
        </clipPath>
        <clipPath id="clip_1">
            <path transform="matrix(1,0,0,-1,0,120)" d="M-128-404H247V408H-128Z" />
        </clipPath>
        <clipPath id="clip_2">
            <path transform="matrix(1,0,0,-1,0,120)"
                d="M116.283 45.26864C118.1131 43.43933 118.1131 40.47789 116.283 38.6504L109.6545 32.03582C107.8244 30.20833 104.8544 30.20833 103.0243 32.03582L96.28784 38.75822 96.36108 38.83041 109.5465 51.99105 116.283 45.26864Z" />
        </clipPath>
        <clipPath id="clip_3">
            <path transform="matrix(1,0,0,-1,0,120)" d="M-128-404H247V408H-128Z" />
        </clipPath>
        <clipPath id="clip_4">
            <path transform="matrix(1,0,0,-1,0,120)"
                d="M109.5465 51.99105 96.36108 38.83041 96.28784 38.75822 89.66034 45.37372 89.73267 45.44865 102.919 58.60654 109.5465 51.99105Z" />
        </clipPath>
        <clipPath id="clip_5">
            <path transform="matrix(1,0,0,-1,0,120)" d="M-128-404H247V408H-128Z" />
        </clipPath>
        <clipPath id="clip_6">
            <path transform="matrix(1,0,0,-1,0,120)"
                d="M102.919 58.60654 89.73267 45.44865 89.66034 45.37372 38.78632 96.14766 38.85956 96.22259 52.04498 109.3805 102.919 58.60654Z" />
        </clipPath>
        <clipPath id="clip_7">
            <path transform="matrix(1,0,0,-1,0,120)" d="M-128-404H247V408H-128Z" />
        </clipPath>
        <clipPath id="clip_8">
            <path transform="matrix(1,0,0,-1,0,120)"
                d="M52.04498 109.3805 38.85956 96.22259 38.78632 96.14766 37.23541 97.69645 30.60699 117.5439 50.49408 110.9293 52.04498 109.3805Z" />
        </clipPath>
        <clipPath id="clip_9">
            <path transform="matrix(1,0,0,-1,0,120)" d="M-128-404H247V408H-128Z" />
        </clipPath>
        <clipPath id="clip_10">
            <path transform="matrix(1,0,0,-1,0,120)"
                d="M83.35327 65.04569C84.26971 65.95852 84.26971 67.44152 83.35327 68.35344 82.43866 69.26809 80.95551 69.26809 80.03906 68.35344 79.12445 67.44152 79.12445 65.95852 80.03906 65.04569 80.95551 64.13103 82.43866 64.13103 83.35327 65.04569Z" />
        </clipPath>
        <clipPath id="clip_11">
            <path transform="matrix(1,0,0,-1,0,120)" d="M-128-404H247V408H-128Z" />
        </clipPath>
        <clipPath id="clip_12">
            <path transform="matrix(1,0,0,-1,0,120)"
                d="M2.34375 .1178727H117.6562C118.6038 .1178727 119.4589 .6871345 119.8215 1.561586 120.184 2.436038 119.9835 3.442069 119.3134 4.110928L4.000854 119.1977C3.330689 119.8675 2.322693 120.0667 1.446533 119.7049 .5712891 119.343 0 118.4905 0 117.5439V2.457054C0 1.165022 1.049194 .1178727 2.34375 .1178727ZM4.6875 111.8969 23.54004 93.08114 18.56689 88.12043C17.65137 87.20669 17.65137 85.72551 18.56689 84.81177 19.48059 83.89894 20.96558 83.89711 21.8811 84.81177L26.85425 89.77339 36.79779 79.84832 31.82556 74.88761C30.91003 73.97387 30.91003 72.49269 31.82465 71.57895 32.73926 70.66612 34.22424 70.66429 35.13977 71.57895L40.11292 76.54057 50.05554 66.61641 45.08423 61.65387C44.1687 60.74105 44.1687 59.25987 45.08423 58.34613 45.99976 57.43238 47.48291 57.43238 48.39844 58.34613L53.37067 63.30866 63.31421 53.38359 58.3429 48.42105C57.42737 47.50822 57.42737 46.02705 58.3429 45.1133 59.25842 44.19956 60.74158 44.19956 61.6571 45.1133L66.62933 50.07493 76.57288 40.15168 71.60156 35.18823C70.68604 34.27449 70.68604 32.79331 71.60156 31.87957 72.51709 30.96674 74.00116 30.96674 74.91669 31.88048L79.88708 36.84302 89.83063 26.91886 84.85931 21.95541C83.9447 21.04167 83.9447 19.56049 84.86023 18.64766 85.77484 17.73392 87.25983 17.73392 88.17535 18.64766L93.14575 23.61111 111.9974 4.796235H4.6875V111.8969Z" />
        </clipPath>
        <clipPath id="clip_13">
            <path transform="matrix(1,0,0,-1,0,120)" d="M-128-404H247V408H-128Z" />
        </clipPath>
        <clipPath id="clip_14">
            <path transform="matrix(1,0,0,-1,0,120)"
                d="M24.1571 71.24726C23.48694 71.91612 22.47894 72.11623 21.60278 71.75439 20.72754 71.39254 20.15625 70.53911 20.15625 69.59338V22.57401C20.15625 21.28198 21.20544 20.23483 22.5 20.23483H69.61121C70.55969 20.23483 71.41388 20.80409 71.77734 21.67855 72.13989 22.55208 71.93848 23.55903 71.26923 24.22789L24.1571 71.24726ZM24.84375 24.91228V63.94554L63.95325 24.91228H24.84375Z" />
        </clipPath>
        <clipPath id="clip_15">
            <path transform="matrix(1,0,0,-1,0,120)" d="M-128-404H247V408H-128Z" />
        </clipPath>
        <clipPath id="clip_16">
            <path transform="matrix(1,0,0,-1,0,120)"
                d="M73.41064 71.66118C74.32617 70.74744 75.80933 70.74744 76.72577 71.66118 77.64038 72.57401 77.64038 74.05519 76.72577 74.96893L66.7804 84.89401C65.86578 85.80775 64.38171 85.80775 63.46619 84.89401 62.55066 83.98118 62.55066 82.5 63.46619 81.58626L73.41064 71.66118Z" />
        </clipPath>
        <clipPath id="clip_17">
            <path transform="matrix(1,0,0,-1,0,120)" d="M-128-404H247V408H-128Z" />
        </clipPath>
        <clipPath id="clip_18">
            <path transform="matrix(1,0,0,-1,0,120)"
                d="M35.57739 96.04258 101.3672 30.38194C104.1138 27.63889 108.5632 27.63889 111.3116 30.38194L117.9401 36.99653C120.6802 39.73136 120.6802 44.18403 117.9401 46.92251L52.15118 112.5832C51.89392 112.8399 51.5799 113.0336 51.23474 113.1478L31.34766 119.7633C30.50629 120.0429 29.57703 119.8246 28.94989 119.1977 28.32184 118.5718 28.10303 117.6453 28.38318 116.8046L35.0116 96.95632C35.12695 96.61184 35.32013 96.29934 35.57739 96.04258ZM114.624 43.61477C115.5386 42.70194 115.5386 41.21619 114.6249 40.30519L107.9974 33.68969C107.0819 32.77595 105.5978 32.77504 104.6814 33.68969L99.60297 38.75822 109.5465 48.6833 114.624 43.61477ZM106.2323 51.99105 96.28784 42.06597 92.97363 45.37463 102.9181 55.29788 106.2323 51.99105ZM52.04498 106.0727 99.60297 58.60746 89.65942 48.68238 42.10052 96.14857 52.04498 106.0727ZM48.48083 109.1329 39.03442 99.70577 34.31213 113.8459 48.48083 109.1329Z" />
        </clipPath>
        <clipPath id="clip_19">
            <path transform="matrix(1,0,0,-1,0,120)" d="M-128-404H247V408H-128Z" />
        </clipPath>
    </defs>
    <g clip-path="url(#clip_0)">
        <g clip-path="url(#clip_1)">
            <path transform="matrix(1,0,0,-1,0,120)" d="M-2.65625 122.5439H122.6562V-2.542946H-2.65625Z"
                fill="#ebeff3" />
        </g>
    </g>
    <g clip-path="url(#clip_2)">
        <g clip-path="url(#clip_3)">
            <path transform="matrix(1,0,0,-1,0,120)" d="M91.28784 56.99105H122.6556V25.6652H91.28784Z" fill="#ffffff" />
        </g>
    </g>
    <g clip-path="url(#clip_4)">
        <g clip-path="url(#clip_5)">
            <path transform="matrix(1,0,0,-1,0,120)" d="M84.66034 63.60654H114.5465V33.75822H84.66034Z"
                fill="#ffffff" />
        </g>
    </g>
    <g clip-path="url(#clip_6)">
        <g clip-path="url(#clip_7)">
            <path transform="matrix(1,0,0,-1,0,120)" d="M33.78632 114.3805H107.919V40.37372H33.78632Z" fill="#ffffff" />
        </g>
    </g>
    <g clip-path="url(#clip_8)">
        <g clip-path="url(#clip_9)">
            <path transform="matrix(1,0,0,-1,0,120)" d="M25.60699 122.5439H57.04498V91.14766H25.60699Z"
                fill="#ffffff" />
        </g>
    </g>
    <g clip-path="url(#clip_10)">
        <g clip-path="url(#clip_11)">
            <path transform="matrix(1,0,0,-1,0,120)" d="M74.3531 74.03943H89.0406V59.35969H74.3531Z" fill="#dadfe3" />
        </g>
    </g>
    <g clip-path="url(#clip_12)">
        <g clip-path="url(#clip_13)">
            <path transform="matrix(1,0,0,-1,0,120)" d="M-5 124.883H124.9998V-4.882127H-5Z" fill="#dadfe3" />
        </g>
    </g>
    <g clip-path="url(#clip_14)">
        <g clip-path="url(#clip_15)">
            <path transform="matrix(1,0,0,-1,0,120)" d="M15.15625 76.93237H76.95548V15.23483H15.15625Z"
                fill="#dadfe3" />
        </g>
    </g>
    <g clip-path="url(#clip_16)">
        <g clip-path="url(#clip_17)">
            <path transform="matrix(1,0,0,-1,0,120)" d="M57.77954 90.57931H82.41173V65.97588H57.77954Z"
                fill="#dadfe3" />
        </g>
    </g>
    <g clip-path="url(#clip_18)">
        <g clip-path="url(#clip_19)">
            <path transform="matrix(1,0,0,-1,0,120)" d="M23.26314 124.8831H124.9952V23.32465H23.26314Z"
                fill="#dadfe3" />
        </g>
    </g>
</svg>
