<svg xmlns="http://www.w3.org/2000/svg" version="1.1" width="32pt" height="32pt" viewBox="0 0 32 32">
    <path xmlns="http://www.w3.org/2000/svg" transform="matrix(1,0,0,-1,0,32)" d="M15.19141 16.33203C15.58105 16.33203 15.86816 16.58496 15.86816 16.96777 15.86816 17.15234 15.80664 17.31641 15.68359 17.43945L13.57129 19.54492 11.67773 21.34277 14.07031 21.20605H14.6377C15 21.20605 15.28027 21.45898 15.28027 21.82812 15.28027 22.19727 15.00684 22.45703 14.6377 22.45703H10.84375C10.14648 22.45703 9.743164 22.05371 9.743164 21.35645V17.5625C9.743164 17.20703 10.00977 16.92676 10.37207 16.92676 10.73438 16.92676 10.99414 17.2002 10.99414 17.5625V18.13672L10.85742 20.52246 12.65527 18.62891 14.76074 16.50977C14.87695 16.38672 15.02734 16.33203 15.19141 16.33203ZM21.66504 9.414062C22.3623 9.414062 22.77246 9.817383 22.77246 10.51465V14.30859C22.77246 14.66406 22.50586 14.94434 22.13672 14.94434 21.78125 14.94434 21.51465 14.6709 21.51465 14.30859V13.73438L21.6582 11.34863 19.85352 13.24219 17.75488 15.36133C17.63867 15.48438 17.48145 15.53906 17.31738 15.53906 16.93457 15.53906 16.64062 15.28613 16.64062 14.90332 16.64062 14.71875 16.70898 14.55469 16.83203 14.43164L18.9375 12.32617 20.83789 10.52832 18.44531 10.66504H17.87109C17.50879 10.66504 17.22852 10.41211 17.22852 10.04297 17.22852 9.673828 17.50879 9.414062 17.87109 9.414062H21.66504Z"/>
</svg>