<svg xmlns="http://www.w3.org/2000/svg" viewBox="0 0 42.666668 42.666668" height="42.666668" width="42.666668"
    xml:space="preserve" id="svg2" version="1.1">
    <defs id="defs6"><clipPath id="clipPath46" clipPathUnits="userSpaceOnUse"><path style="clip-rule:evenodd" id="path44" d="M 16,0 C 24.83656,0 32,7.163444 32,16 32,24.83656 24.83656,32 16,32 7.163444,32 0,24.83656 0,16 0,7.163444 7.163444,0 16,0 Z"/></clipPath>
        <clipPath id="clipPath54" clipPathUnits="userSpaceOnUse"><path id="path52" d="m 14.76758,16.5918 c 0.69726,0 1.10058,0.41015 1.10058,1.10742 v 3.78711 c 0,0.35547 -0.2666,0.63574 -0.6289,0.63574 -0.36231,0 -0.62207,-0.27344 -0.62207,-0.63574 v -0.57422 l 0.14355,-2.38574 -1.80469,1.89355 -2.09863,2.11914 c -0.11621,0.12305 -0.27344,0.18457 -0.4375,0.18457 -0.38965,0 -0.676756,-0.25976 -0.676756,-0.64258 0,-0.17773 0.068359,-0.34863 0.191406,-0.47167 l 2.10547,-2.10547 1.89355,-1.79786 -2.38574,0.13672 h -0.57422 c -0.3623,0 -0.64258,-0.25293 -0.64258,-0.62207 0,-0.3623 0.27344,-0.6289 0.64258,-0.6289 z m 7.6289,-7.512698 c 0.38282,0 0.66993,0.259765 0.66993,0.642578 0,0.177734 -0.06153,0.34863 -0.18457,0.47168 l -2.15332,2.15332 -1.9004,1.79785 2.39258,-0.13672 h 0.64942 c 0.3623,0 0.64258,0.25293 0.64258,0.61524 0,0.36914 -0.27344,0.6289 -0.64258,0.6289 h -3.86914 c -0.69727,0 -1.10059,-0.40332 -1.10059,-1.10058 v -3.86231 c 0,-0.362302 0.25977,-0.63574 0.62891,-0.63574 0.3623,0 0.62207,0.266602 0.62207,0.63574 v 0.64942 l -0.14356,2.3789 1.80469,-1.89355 2.14648,-2.160158 c 0.11622,-0.123047 0.26661,-0.18457 0.4375,-0.18457 z"/></clipPath></defs>
    <g transform="matrix(1.3333333,0,0,-1.3333333,0,42.666667)" id="g10"><g id="g30"><g clip-path="url(#clipPath36)" id="g32"><g id="g38"/><g
        id="g80"><g id="g78" clip-path="url(#clipPath42)"><g id="g60"/><g id="g68"><g id="g66" clip-path="url(#clipPath46)"><g id="g64" clip-path="url(#clipPath50)"><path id="path62" style="fill:#53627c;fill-opacity:1;fill-rule:nonzero;stroke:none" d="M -5,37 H 37 V -5 H -5 Z"/></g></g></g><g
        id="g76"><g id="g74" clip-path="url(#clipPath54)"><g id="g72" clip-path="url(#clipPath58)"><path id="path70" style="fill:#ffffff;fill-opacity:1;fill-rule:nonzero;stroke:none" d="M 4.743164,27.72363 H 28.06641 V 4.079102 H 4.743164 Z"/></g></g></g></g></g></g></g>
        <g id="g82" /></g></svg>