<svg xmlns="http://www.w3.org/2000/svg" viewBox="0 0 32 32" id="vector">
    <defs>
        <clipPath id="clip_path_1">
            <path d="M 9.832 17.692 C 10.868 17.692 11.692 16.871 11.692 15.847 C 11.692 14.821 10.868 14 9.832 14 C 8.824 14 8 14.821 8 15.847 C 8 16.871 8.824 17.692 9.832 17.692 Z M 15.996 17.692 C 17.023 17.692 17.847 16.871 17.847 15.847 C 17.847 14.821 17.023 14 15.996 14 C 14.977 14 14.153 14.821 14.153 15.847 C 14.153 16.871 14.977 17.692 15.996 17.692 Z M 22.163 17.692 C 23.183 17.692 24 16.871 24 15.847 C 24 14.821 23.183 14 22.163 14 C 21.125 14 20.308 14.821 20.308 15.847 C 20.308 16.871 21.125 17.692 22.163 17.692 Z"/>
        </clipPath>
    </defs>
    <path id="path_1" clip-path="url(#clip_path_1)" d="M 1.333 7.333 L 30.667 7.333 L 30.667 24.359 L 1.333 24.359 Z" fill="#27cc8d" stroke-width="1.333333015"/>
</svg>