<svg xmlns="http://www.w3.org/2000/svg" id="vector" viewBox="9.5 5.5 13 13">
    <path id="path"
        d="M 21.449 11.616 L 17.623 7.803 L 18.627 6.8 C 18.81 6.617 18.81 6.321 18.627 6.138 C 18.444 5.954 18.148 5.954 17.964 6.137 L 12.308 11.787 C 12.1 12 12.207 11.895 12.051 12.041 C 11.896 12.187 11.957 12.369 12.051 12.454 C 12.145 12.538 12.116 12.511 12.386 12.759 L 16.351 16.71 C 16.717 17.076 17.197 17.258 17.676 17.258 C 18.156 17.258 18.637 17.075 19.002 16.71 L 21.45 14.269 C 21.804 13.914 21.999 13.443 21.999 12.942 C 21.999 12.441 21.803 11.97 21.449 11.616 Z M 20.787 13.605 L 18.339 16.047 C 17.974 16.412 17.379 16.412 17.013 16.047 L 13.611 12.656 L 18.811 12.656 C 19.07 12.656 19.28 12.446 19.28 12.188 C 19.28 11.929 19.07 11.719 18.811 11.719 L 13.703 11.719 L 16.959 8.466 L 20.786 12.28 C 20.964 12.457 21.061 12.692 21.061 12.943 C 21.061 13.193 20.964 13.429 20.787 13.605 Z"
        fill="#53627c" stroke="#00000000" stroke-width="1" />
    <path id="path_1"
        d="M 12.231 15.358 C 11.992 15.002 11.756 14.714 11.746 14.702 C 11.657 14.594 11.524 14.531 11.384 14.531 C 11.244 14.531 11.111 14.594 11.022 14.702 C 11.012 14.714 10.776 15.002 10.538 15.358 C 10.057 16.076 10.001 16.421 10.001 16.617 C 10.001 17.38 10.622 18 11.384 18 C 12.146 18 12.767 17.38 12.767 16.617 C 12.767 16.421 12.711 16.076 12.231 15.358 Z M 11.384 17.063 C 11.139 17.063 10.939 16.863 10.939 16.618 C 10.939 16.616 10.951 16.424 11.32 15.874 C 11.342 15.843 11.363 15.812 11.384 15.781 C 11.405 15.812 11.426 15.843 11.448 15.874 C 11.811 16.415 11.829 16.61 11.829 16.618 C 11.829 16.863 11.629 17.063 11.384 17.063 Z"
        fill="#53627c" stroke="#00000000" stroke-width="1" />
    <path id="path_2" d="M 13.047 11.709 L 21.306 11.709 L 21.58 13.636 L 17.694 17.063 L 13.154 13.016 Z"
        fill="#53627c" stroke="#00000000" stroke-width="1" fill-rule="evenodd" />
    <path id="path_3" d="M 10.75 15.75 L 12.25 15.75 L 12.25 17.25 L 10.75 17.25 Z" fill="#53627c" stroke="#00000000"
        stroke-width="1" fill-rule="evenodd" />
</svg>