<svg
    xmlns="http://www.w3.org/2000/svg"
    viewBox="0 0 32 32"
    id="vector">
    <path
        id="path"
        d="M 16 16 M 0.5 16 C 0.5 11.891 2.134 7.946 5.04 5.04 C 7.946 2.134 11.891 0.5 16 0.5 C 20.109 0.5 24.054 2.134 26.96 5.04 C 29.866 7.946 31.5 11.891 31.5 16 C 31.5 20.109 29.866 24.054 26.96 26.96 C 24.054 29.866 20.109 31.5 16 31.5 C 11.891 31.5 7.946 29.866 5.04 26.96 C 2.134 24.054 0.5 20.109 0.5 16"
        fill="#18252e"
        stroke="#ffffff"
        stroke-width="1"
        fill-rule="evenodd"/>
    <path
        id="path_1"
        d="M 15.903 21.845 C 16.252 21.845 16.481 21.591 16.481 21.28 C 16.481 20.969 16.252 20.715 15.903 20.715 L 14.443 20.715 C 12.279 20.715 11.13 19.445 11.13 17.731 C 11.13 16.024 12.279 14.831 14.443 14.831 L 18.798 14.831 L 20.29 14.767 L 19.084 15.795 L 17.255 17.579 C 17.154 17.681 17.103 17.801 17.103 17.966 C 17.103 18.296 17.325 18.525 17.662 18.525 C 17.801 18.525 17.966 18.461 18.074 18.347 L 21.807 14.685 C 21.934 14.564 21.997 14.418 21.997 14.266 C 21.997 14.107 21.934 13.961 21.807 13.84 L 18.074 10.178 C 17.966 10.07 17.801 10 17.662 10 C 17.325 10 17.103 10.229 17.103 10.559 C 17.103 10.724 17.154 10.844 17.255 10.946 L 19.084 12.736 L 20.29 13.764 L 18.798 13.694 L 14.539 13.694 C 11.638 13.694 10 15.37 10 17.795 C 10 20.226 11.593 21.845 14.437 21.845 L 15.903 21.845 Z"
        fill="#ffffff"
        fill-rule="evenodd"/>
</svg>
