<svg width="120" height="120" viewBox="0 0 120 120" xmlns="http://www.w3.org/2000/svg">
    <g fill-rule="nonzero" fill="none">
        <path d="M105.32 14.68c16.477 16.479 16.477 43.193 0 59.672C89.96 89.708 65.71 90.754 49.145 77.484a42.48 42.48 0 0 1-6.629-6.63C29.246 54.29 30.292 30.04 45.648 14.68c16.479-16.477 43.193-16.477 59.672 0z" fill="#091924"/>
        <path d="M98.688 21.311C85.85 8.467 65.051 8.537 52.263 21.326a32.7 32.7 0 0 0-6.205 8.659c-5.923 11.725-4.21 27.308 6.221 37.736 16.002 16.004 43.043 11.255 52.715-8.85 1.21-2.487 1.385-3.428 1.458-3.502 4.042-11.633 1.371-24.924-7.764-34.058z" fill="#18252E"/>
        <path fill="#091924" d="M42.516 70.855 32.387 80.98l6.632 6.632 10.126-10.13z"/>
        <path d="M39.019 87.613a4.687 4.687 0 0 1 0 6.629l-20.666 20.663a9.37 9.37 0 0 1-13.259 0 9.37 9.37 0 0 1 0-13.258l20.664-20.666a4.687 4.687 0 0 1 6.63 0l6.63 6.632z" fill="#091924"/>
        <path d="M104.843 63.868c8.746-13.256 7.673-31.325-3.868-43.57-11.522-12.077-29.23-13.931-42.328-6.655a2.344 2.344 0 0 0 2.276 4.099c11.981-6.657 27.056-4.274 36.65 5.782 9.899 10.503 11.014 26.158 3.355 37.764-10.548 16.023-33.332 18.437-46.992 4.775-9.204-9.202-11.871-24.04-5.222-36.116a2.344 2.344 0 0 0-4.108-2.26 35.215 35.215 0 0 0 6.015 41.69c15.739 15.742 42.026 13.016 54.222-5.509z" fill="#273843"/>
        <path d="M24.1 79.324 3.438 99.989c-4.582 4.578-4.585 11.993-.002 16.573 4.58 4.583 11.994 4.585 16.574 0L40.676 95.9a7.032 7.032 0 0 0 1.376-8.004l7.303-7.306c17.522 12.72 42.007 11.035 57.623-4.58 17.363-17.365 17.363-45.62 0-62.986-17.366-17.363-45.622-17.364-62.988 0-15.616 15.618-17.297 40.105-4.58 57.622l-7.305 7.303a7.032 7.032 0 0 0-8.005 1.376zm19.89-3.315c.551.551 1.12 1.09 1.702 1.613l-6.673 6.676-3.316-3.316 6.675-6.674a44.82 44.82 0 0 0 1.612 1.701zm-6.629 16.575-20.666 20.664a7.022 7.022 0 0 1-9.944 0 7.022 7.022 0 0 1 0-9.943l20.664-20.666a2.346 2.346 0 0 1 3.314 0l6.632 6.631c.914.914.914 2.4 0 3.314zm9.944-76.246C62.842.803 88.124.8 103.662 16.338c15.536 15.537 15.536 40.819 0 56.356-15.533 15.532-40.695 15.664-56.357 0-15.643-15.64-15.55-40.804 0-56.356z" fill="#273843"/>
        <path d="M50.68 23.027c.922.856 2.361.835 3.256-.058a2.347 2.347 0 0 0 .057-3.256 2.348 2.348 0 0 0-3.373-.06 2.348 2.348 0 0 0 .06 3.374z" fill="#273843"/>
    </g>
</svg>
