<svg xmlns="http://www.w3.org/2000/svg" version="1.1" width="200pt" height="62pt" viewBox="0 0 200 62">
<defs>
<clipPath id="clip_0">
<path transform="matrix(1,0,0,-1,0,62)" d="M18.33411 61.40603C27.058 61.40603 31.47564 56.67749 31.47564 56.67749L29.55452 54.02784C26.44068 56.65716 22.49307 58.09311 18.41763 58.07889 9.87007 58.08353 3.740139 51.43387 3.740139 42.81206 3.740139 34.08817 9.87007 26.96984 18.54292 26.96984 22.97225 26.99517 27.21844 28.74056 30.38515 31.83759L32.4826 29.30858C28.77316 25.62369 23.73867 23.58381 18.51044 23.64733 7.689095 23.64733 0 32.11137 0 42.76102 0 53.41067 7.888631 61.40603 18.33411 61.40603Z"/>
</clipPath>
<clipPath id="clip_1">
<path transform="matrix(1,0,0,-1,0,62)" d="M-88-375H287V437H-88Z"/>
</clipPath>
<clipPath id="clip_2">
<path transform="matrix(1,0,0,-1,0,62)" d="M37.33643 61.40603H40.51508V44.36659C40.51508 43.29002 40.42227 42.45012 40.42227 42.45012H40.51508C41.40139 44.69142 44.53364 48.29234 49.86079 48.29234 55.65661 48.29234 57.7123 44.97448 57.7123 39.17865V24.20882H54.53364V38.33411C54.53364 42.0464 53.97216 45.29466 49.42923 45.29466 45.39592 45.25612 41.88994 42.51677 40.87703 38.61253 40.60281 37.59175 40.47624 36.53695 40.50116 35.48028V24.20882H37.33643V61.40603Z"/>
</clipPath>
<clipPath id="clip_3">
<path transform="matrix(1,0,0,-1,0,62)" d="M-88-375H287V437H-88Z"/>
</clipPath>
<clipPath id="clip_4">
<path transform="matrix(1,0,0,-1,0,62)" d="M76.33411 38.74246H77.64269V39.35035C77.64269 43.88399 75.16473 45.42459 71.80046 45.42459 69.40872 45.38911 67.08816 44.60531 65.16473 43.18329L63.67053 45.61485C63.67053 45.61485 66.75638 48.27842 72.0232 48.27842 77.67981 48.27842 80.81206 45.14617 80.81206 39.25754V24.20882H77.77262V26.77958C77.76897 27.43505 77.79995 28.09026 77.86543 28.74246H77.77262C76.41593 25.62039 73.32511 23.611 69.92111 23.63805 65.99536 23.63805 61.93039 25.93039 61.93039 30.59861 61.93503 38.55684 72.2645 38.74246 76.33411 38.74246ZM70.44084 26.35731C74.92807 26.35731 77.63805 31.03016 77.63805 35.09977V36.12529H76.2877C72.57541 36.12529 65.21113 35.98608 65.21113 30.79814 65.2065 28.58933 66.93735 26.35731 70.44084 26.35731Z"/>
</clipPath>
<clipPath id="clip_5">
<path transform="matrix(1,0,0,-1,0,62)" d="M-88-375H287V437H-88Z"/>
</clipPath>
<clipPath id="clip_6">
<path transform="matrix(1,0,0,-1,0,62)" d="M86.69142 47.71694H89.82367V43.5406C89.82367 42.51044 89.73086 41.68445 89.73086 41.68445H89.82367C90.94664 45.23898 93.56381 47.94896 97.24826 47.94896 97.67258 47.94482 98.09542 47.89819 98.51044 47.80974V44.67749C98.12343 44.73686 97.7326 44.76787 97.34107 44.7703 94.0232 44.7703 91.54524 42.15313 90.51508 38.69606 90.069 37.21072 89.84844 35.66683 89.86079 34.11601V24.20882H86.68213L86.69142 47.71694Z"/>
</clipPath>
<clipPath id="clip_7">
<path transform="matrix(1,0,0,-1,0,62)" d="M-88-375H287V437H-88Z"/>
</clipPath>
<clipPath id="clip_8">
<path transform="matrix(1,0,0,-1,0,62)" d="M105.2854 44.77494H102.1995V47.43852H105.3364V54.21346H108.4687V47.43852H114.3573V44.77494H108.464V33.09049C108.464 27.57309 111.9722 26.87239 113.7448 26.87239 114.1058 26.86754 114.4665 26.89863 114.8213 26.9652V24.11601C114.3729 24.04845 113.9198 24.01741 113.4664 24.0232 110.7564 24.0232 105.2854 24.90951 105.2854 32.76566V44.77494Z"/>
</clipPath>
<clipPath id="clip_9">
<path transform="matrix(1,0,0,-1,0,62)" d="M-88-375H287V437H-88Z"/>
</clipPath>
<clipPath id="clip_10">
<path transform="matrix(1,0,0,-1,0,62)" d="M193.0766 32.53828C198.4033 40.61842 196.7058 51.42496 189.1584 57.48291 181.611 63.54085 170.6932 62.85995 163.9569 55.91118 157.2207 48.96241 156.8791 38.0287 163.1685 30.67302 169.4579 23.31734 180.3119 21.95629 188.2227 27.53132 190.5331 25.24064 193.6655 23.97197 196.9188 24.00928H199.8283V30.96984H196.9188C195.4796 30.95652 194.0953 31.5216 193.0766 32.53828ZM165.6984 42.82135C165.6916 47.55955 168.5316 51.83814 172.9006 53.67191 177.2695 55.50568 182.3124 54.53573 185.6894 51.21211 189.0664 47.88848 190.1166 42.86167 188.3527 38.46404 185.9675 41.47564 182.8306 44.36659 177.5128 44.36659H175.7309V37.40603H177.5128C180.1995 37.40603 181.6891 35.8051 183.8097 32.95592 180.197 30.6289 175.6015 30.4617 171.8292 32.52004 168.0568 34.57837 165.7105 38.53328 165.7123 42.83063L165.6984 42.82135Z"/>
</clipPath>
<clipPath id="clip_11">
<path transform="matrix(1,0,0,-1,0,62)" d="M-88-375H287V437H-88Z"/>
</clipPath>
<clipPath id="clip_12">
<path transform="matrix(1,0,0,-1,0,62)" d="M153.8144 31.07657H151.1044C150.6636 31.07657 150.3063 31.43391 150.3063 31.87471V53.77262C150.305 53.98511 150.3886 54.18931 150.5384 54.34 150.6882 54.49068 150.8919 54.57541 151.1044 54.57541H153.8144V61.53596H139.8329V54.57541H142.5429C142.9837 54.57541 143.3411 54.21806 143.3411 53.77726V31.87471C143.3411 31.43391 142.9837 31.07657 142.5429 31.07657H139.8329V24.11601H153.8144V31.07657Z"/>
</clipPath>
<clipPath id="clip_13">
<path transform="matrix(1,0,0,-1,0,62)" d="M-88-375H287V437H-88Z"/>
</clipPath>
<clipPath id="clip_14">
<path transform="matrix(1,0,0,-1,0,62)" d="M126.7007 .7656613H129.7819V61.535966H126.7007Z"/>
</clipPath>
<clipPath id="clip_15">
<path transform="matrix(1,0,0,-1,0,62)" d="M116.6589 10.89095H199.82828V13.972157H116.6589Z"/>
</clipPath>
</defs>
<g clip-path="url(#clip_0)">
<g clip-path="url(#clip_1)">
<path transform="matrix(1,0,0,-1,0,62)" d="M-5 66.40603H37.4826V18.64589H-5Z" fill="#18252e"/>
</g>
</g>
<g clip-path="url(#clip_2)">
<g clip-path="url(#clip_3)">
<path transform="matrix(1,0,0,-1,0,62)" d="M32.33643 66.40603H62.7123V19.20882H32.33643Z" fill="#18252e"/>
</g>
</g>
<g clip-path="url(#clip_4)">
<g clip-path="url(#clip_5)">
<path transform="matrix(1,0,0,-1,0,62)" d="M56.93039 53.27842H85.81206V18.63778H56.93039Z" fill="#18252e"/>
</g>
</g>
<g clip-path="url(#clip_6)">
<g clip-path="url(#clip_7)">
<path transform="matrix(1,0,0,-1,0,62)" d="M81.68213 52.94896H103.5104V19.20882H81.68213Z" fill="#18252e"/>
</g>
</g>
<g clip-path="url(#clip_8)">
<g clip-path="url(#clip_9)">
<path transform="matrix(1,0,0,-1,0,62)" d="M97.19954 59.21346H119.8213V19.02252H97.19954Z" fill="#18252e"/>
</g>
</g>
<g clip-path="url(#clip_10)">
<g clip-path="url(#clip_11)">
<path transform="matrix(1,0,0,-1,0,62)" d="M153.6689 66.6111H204.8283V19.00848H153.6689Z" fill="#18252e"/>
</g>
</g>
<g clip-path="url(#clip_12)">
<g clip-path="url(#clip_13)">
<path transform="matrix(1,0,0,-1,0,62)" d="M134.8329 66.53596H158.8144V19.11601H134.8329Z" fill="#18252e"/>
</g>
</g>
<g clip-path="url(#clip_14)">
<path transform="matrix(1,0,0,-1,0,62)" d="M121.7007 66.53596H134.7819V-4.234339H121.7007Z" fill="#27cc8d"/>
</g>
<g clip-path="url(#clip_15)">
<path transform="matrix(1,0,0,-1,0,62)" d="M111.6589 18.97216H204.8283V5.890951H111.6589Z" fill="#27cc8d"/>
</g>
</svg>
