<svg
    xmlns="http://www.w3.org/2000/svg"
    viewBox="0 0 32 32"
    id="vector">
    <path
        id="path"
        d="M 16 16 M 0.5 16 C 0.5 11.891 2.134 7.946 5.04 5.04 C 7.946 2.134 11.891 0.5 16 0.5 C 20.109 0.5 24.054 2.134 26.96 5.04 C 29.866 7.946 31.5 11.891 31.5 16 C 31.5 20.109 29.866 24.054 26.96 26.96 C 24.054 29.866 20.109 31.5 16 31.5 C 11.891 31.5 7.946 29.866 5.04 26.96 C 2.134 24.054 0.5 20.109 0.5 16"
        fill="#18252e"
        stroke="#ffffff"
        stroke-width="1"
        fill-rule="evenodd"/>
    <path
        id="path_1"
        d="M 17.56 21.845 C 20.398 21.845 21.997 20.226 21.997 17.795 C 21.997 15.37 20.353 13.694 17.459 13.694 L 13.193 13.694 L 11.707 13.764 L 12.907 12.736 L 14.742 10.946 C 14.837 10.844 14.894 10.724 14.894 10.559 C 14.894 10.229 14.672 10 14.329 10 C 14.196 10 14.031 10.07 13.923 10.178 L 10.19 13.84 C 10.063 13.961 10 14.107 10 14.266 C 10 14.418 10.063 14.564 10.19 14.685 L 13.923 18.347 C 14.031 18.461 14.196 18.525 14.329 18.525 C 14.672 18.525 14.894 18.296 14.894 17.966 C 14.894 17.801 14.837 17.681 14.742 17.579 L 12.907 15.795 L 11.707 14.767 L 13.193 14.831 L 17.554 14.831 C 19.718 14.831 20.861 16.024 20.861 17.731 C 20.861 19.445 19.718 20.715 17.554 20.715 L 16.094 20.715 C 15.745 20.715 15.516 20.969 15.516 21.28 C 15.516 21.591 15.745 21.845 16.094 21.845 L 17.56 21.845 Z"
        fill="#ffffff"
        fill-rule="evenodd"/>
</svg>
