<svg
    xmlns="http://www.w3.org/2000/svg"
    viewBox="0 0 24 25"
    id="vector">
    <path
        id="path"
        d="M 12.558 3.008 L 12.558 15.44 L 14.966 15.44 L 14.966 16.551 L 12.557 16.551 L 12.557 19.261 L 11.448 19.261 L 11.448 6.93 L 8.998 6.93 L 8.998 5.82 L 11.446 5.82 L 11.446 3.007 L 12.558 3.007 Z"
        fill="#53627c"/>
    <path
        id="path_1"
        d="M 6.593 5.923 L 6.593 18.355 L 9.001 18.355 L 9.001 19.466 L 6.592 19.466 L 6.592 22.176 L 5.483 22.176 L 5.483 9.845 L 3.033 9.845 L 3.033 8.735 L 5.481 8.735 L 5.481 5.922 L 6.593 5.922 Z"
        fill="#53627c"/>
    <path
        id="path_2"
        d="M 18.523 5.923 L 18.523 18.355 L 20.931 18.355 L 20.931 19.466 L 18.522 19.466 L 18.522 22.176 L 17.413 22.176 L 17.413 9.845 L 14.963 9.845 L 14.963 8.735 L 17.411 8.735 L 17.411 5.922 L 18.523 5.922 Z"
        fill="#53627c"/>
</svg>
