<svg
    xmlns="http://www.w3.org/2000/svg"
    viewBox="0 0 24 25"
    id="vector">
    <path
        id="path"
        d="M 13.777 8.834 L 13.777 9.945 L 10.42 9.945 L 10.42 8.834 Z"
        fill="#53627c"/>
    <path
        id="path_1"
        d="M 11.531 3.187 L 11.531 20.673 L 10.406 20.673 L 10.406 3.187 Z"
        fill="#53627c"/>
    <path
        id="path_2"
        d="M 7.516 16.834 L 7.516 17.945 L 4.159 17.945 L 4.159 16.834 Z"
        fill="#53627c"/>
    <path
        id="path_3"
        d="M 5.27 6.387 L 4.145 6.387 L 4.145 7.987 L 5.27 7.987 L 5.27 6.387 Z M 5.27 8.787 L 4.145 8.787 L 4.145 10.387 L 5.27 10.387 L 5.27 8.787 Z M 5.27 11.187 L 4.145 11.187 L 4.145 12.787 L 5.27 12.787 L 5.27 11.187 Z M 5.27 13.587 L 4.145 13.587 L 4.145 15.187 L 5.27 15.187 L 5.27 13.587 Z M 5.27 15.987 L 4.145 15.987 L 4.145 17.587 L 5.27 17.587 L 5.27 15.987 Z M 5.27 18.387 L 4.145 18.387 L 4.145 19.987 L 5.27 19.987 L 5.27 18.387 Z M 5.27 20.787 L 4.145 20.787 L 4.145 22.387 L 5.27 22.387 L 5.27 20.787 Z"
        fill="#53627c"/>
    <path
        id="path_4"
        d="M 20.038 16.834 L 20.038 17.945 L 16.681 17.945 L 16.681 16.834 Z"
        fill="#53627c"/>
    <path
        id="path_5"
        d="M 17.792 6.387 L 16.667 6.387 L 16.667 7.987 L 17.792 7.987 L 17.792 6.387 Z M 17.792 8.787 L 16.667 8.787 L 16.667 10.387 L 17.792 10.387 L 17.792 8.787 Z M 17.792 11.187 L 16.667 11.187 L 16.667 12.787 L 17.792 12.787 L 17.792 11.187 Z M 17.792 13.587 L 16.667 13.587 L 16.667 15.187 L 17.792 15.187 L 17.792 13.587 Z M 17.792 15.987 L 16.667 15.987 L 16.667 17.587 L 17.792 17.587 L 17.792 15.987 Z M 17.792 18.387 L 16.667 18.387 L 16.667 19.987 L 17.792 19.987 L 17.792 18.387 Z M 17.792 20.787 L 16.667 20.787 L 16.667 22.387 L 17.792 22.387 L 17.792 20.787 Z"
        fill="#53627c"/>
</svg>
