<svg
    xmlns="http://www.w3.org/2000/svg"
    viewBox="0 0 24 25"
    id="vector">
    <path
        id="path"
        d="M 12.519 16.13 L 15.249 16.131 L 15.249 17.242 L 12.519 17.242 L 12.52 20.164 L 11.42 20.164 L 11.42 7.089 L 8.71 7.089 L 8.71 5.978 L 11.418 5.977 L 11.419 3.009 L 12.519 3.009 L 12.519 16.13 Z"
        fill="#53627c"/>
    <path
        id="path_1"
        d="M 8.648 19.208 L 8.648 20.319 L 5.918 20.319 L 5.919 21.641 L 4.819 21.641 L 4.819 19.419 L 4.833 19.419 L 4.833 19.209 L 8.648 19.209 Z M 5.919 16.087 L 5.919 18.309 L 4.819 18.309 L 4.819 16.087 L 5.919 16.087 Z M 5.919 12.753 L 5.919 14.975 L 4.819 14.975 L 4.819 12.752 L 5.919 12.752 Z M 5.919 11.643 L 4.819 11.643 L 4.819 10.165 L 2.109 10.165 L 2.109 9.055 L 5.919 9.055 L 5.919 11.641 Z M 5.919 6.087 L 5.919 8.307 L 4.819 8.307 L 4.819 6.086 L 5.919 6.086 Z"
        fill="#53627c"/>
    <path
        id="path_2"
        d="M 21.849 19.208 L 21.849 20.319 L 19.119 20.319 L 19.12 21.641 L 18.02 21.641 L 18.02 19.419 L 18.034 19.419 L 18.034 19.209 L 21.849 19.209 Z M 19.12 16.087 L 19.12 18.309 L 18.02 18.309 L 18.02 16.087 L 19.12 16.087 Z M 19.12 12.753 L 19.12 14.975 L 18.02 14.975 L 18.02 12.752 L 19.12 12.752 Z M 19.12 11.643 L 18.02 11.643 L 18.02 10.165 L 15.31 10.165 L 15.31 9.055 L 19.12 9.055 L 19.12 11.641 Z M 19.12 6.087 L 19.12 8.307 L 18.02 8.307 L 18.02 6.086 L 19.12 6.086 Z"
        fill="#53627c"/>
</svg>
