<svg
    xmlns="http://www.w3.org/2000/svg"
    viewBox="0 0 24 25"
    id="vector">
    <path
        id="path"
        d="M 5.23 5.929 L 5.23 8.499 L 6.462 8.5 L 6.462 16.214 L 5.23 16.214 L 5.23 19.429 L 4.23 19.429 L 4.23 16.214 L 3 16.214 L 3 8.5 L 4.23 8.5 L 4.23 5.929 L 5.23 5.929 Z M 10.077 4 L 10.077 5.928 L 11.307 5.928 L 11.307 13 L 10.077 13 L 10.077 16.214 L 9.077 16.214 L 9.077 13 L 7.847 13 L 7.847 5.929 L 9.077 5.928 L 9.077 4 L 10.077 4 Z M 14.923 5.929 L 14.923 8.499 L 16.153 8.5 L 16.153 16.214 L 14.923 16.214 L 14.923 19.429 L 13.923 19.429 L 13.923 16.214 L 12.693 16.214 L 12.693 8.5 L 13.923 8.5 L 13.923 5.929 L 14.923 5.929 Z M 19.77 8.5 L 19.768 11.714 L 21 11.714 L 21 19.429 L 19.768 19.428 L 19.77 22 L 18.77 22 L 18.77 19.428 L 17.54 19.428 L 17.54 11.715 L 18.77 11.715 L 18.77 8.5 L 19.77 8.5 Z"
        fill="#53627c"/>
</svg>
