<svg
    xmlns="http://www.w3.org/2000/svg"
    viewBox="0 0 24 25"
    id="vector">
    <path
        id="path"
        d="M 3.321 18.464 L 3.321 10.107 L 5.071 10.107 L 5.071 7.536 L 6.071 7.536 L 6.071 10.106 L 7.821 10.107 L 7.821 18.464 L 6.071 18.464 L 6.071 21.676 L 5.071 21.676 L 5.071 18.464 L 3.321 18.464 Z M 6.821 11.107 L 4.321 11.107 L 4.321 17.464 L 6.821 17.464 L 6.821 11.107 Z M 9.75 15.25 L 9.75 6.893 L 11.5 6.893 L 11.5 4.32 L 12.5 4.32 L 12.5 6.891 L 14.25 6.891 L 14.25 15.249 L 12.5 15.249 L 12.5 18.463 L 11.5 18.463 L 11.5 15.25 L 9.75 15.25 Z M 13.25 7.892 L 10.75 7.892 L 10.75 14.25 L 13.25 14.25 L 13.25 7.892 Z M 16.179 18.464 L 16.179 10.107 L 17.929 10.107 L 17.929 7.536 L 18.929 7.536 L 18.929 10.106 L 20.679 10.107 L 20.679 18.464 L 18.929 18.464 L 18.929 21.676 L 17.929 21.676 L 17.929 18.464 L 16.179 18.464 Z M 19.678 11.107 L 17.178 11.107 L 17.178 17.464 L 19.678 17.464 L 19.678 11.107 Z"
        fill="#53627c"/>
</svg>
