<svg
    xmlns="http://www.w3.org/2000/svg"
    viewBox="0 0 24 25"
    id="vector">
    <path
        id="path"
        d="M 11.239 19.919 C 11.239 19.288 11.044 18.783 10.653 18.403 C 10.263 18.023 9.719 17.833 9.024 17.833 L 7.364 17.833 C 6.671 17.833 6.128 18.025 5.733 18.407 C 5.338 18.79 5.14 19.295 5.14 19.923 C 5.14 20.551 5.338 21.053 5.733 21.43 C 6.128 21.807 6.671 21.996 7.363 21.996 L 9.024 21.996 C 9.719 21.996 10.262 21.807 10.653 21.43 C 11.043 21.054 11.239 20.55 11.239 19.919 Z M 10.311 19.919 C 10.311 20.222 10.204 20.451 9.989 20.607 C 9.775 20.763 9.453 20.841 9.024 20.841 L 7.355 20.841 C 6.929 20.841 6.609 20.764 6.395 20.611 C 6.18 20.458 6.073 20.229 6.073 19.923 C 6.073 19.62 6.181 19.389 6.396 19.231 C 6.612 19.072 6.932 18.993 7.356 18.993 L 9.024 18.993 C 9.454 18.993 9.774 19.073 9.989 19.231 C 10.204 19.389 10.311 19.618 10.311 19.919 Z M 11.239 15.143 C 11.239 14.512 11.044 14.007 10.653 13.627 C 10.263 13.247 9.719 13.057 9.024 13.057 L 7.364 13.057 C 6.671 13.057 6.128 13.249 5.733 13.631 C 5.338 14.013 5.14 14.519 5.14 15.147 C 5.14 15.775 5.338 16.277 5.733 16.654 C 6.128 17.031 6.671 17.219 7.363 17.219 L 9.024 17.219 C 9.719 17.219 10.262 17.031 10.653 16.654 C 11.043 16.277 11.239 15.774 11.239 15.143 Z M 10.311 15.143 C 10.311 15.446 10.204 15.675 9.989 15.831 C 9.775 15.986 9.453 16.064 9.024 16.064 L 7.355 16.064 C 6.929 16.064 6.609 15.988 6.395 15.834 C 6.18 15.682 6.073 15.453 6.073 15.147 C 6.073 14.844 6.181 14.613 6.396 14.454 C 6.612 14.296 6.932 14.217 7.356 14.217 L 9.024 14.217 C 9.454 14.217 9.774 14.297 9.989 14.454 C 10.204 14.613 10.311 14.842 10.311 15.143 Z M 11.239 10.366 C 11.239 9.736 11.044 9.23 10.653 8.851 C 10.263 8.471 9.719 8.281 9.024 8.281 L 7.364 8.281 C 6.671 8.281 6.128 8.473 5.733 8.855 C 5.338 9.237 5.14 9.742 5.14 10.37 C 5.14 10.999 5.338 11.501 5.733 11.878 C 6.128 12.255 6.671 12.443 7.363 12.443 L 9.024 12.443 C 9.719 12.443 10.262 12.255 10.653 11.878 C 11.043 11.501 11.239 10.998 11.239 10.366 Z M 10.311 10.366 C 10.311 10.67 10.204 10.899 9.989 11.055 C 9.775 11.21 9.453 11.288 9.024 11.288 L 7.355 11.288 C 6.929 11.288 6.609 11.212 6.395 11.058 C 6.18 10.906 6.073 10.676 6.073 10.37 C 6.073 10.067 6.181 9.837 6.396 9.678 C 6.612 9.52 6.932 9.441 7.356 9.441 L 9.024 9.441 C 9.454 9.441 9.774 9.52 9.989 9.678 C 10.204 9.837 10.311 10.066 10.311 10.366 Z"
        fill="#53627c"/>
    <path
        id="path_1"
        d="M 18.791 20.572 L 16.662 19.737 L 16.662 19.712 L 18.792 18.878 L 18.792 17.473 L 15.785 19.017 L 12.828 17.572 L 12.828 18.919 L 14.913 19.729 L 14.913 19.753 L 12.828 20.551 L 12.828 21.89 L 15.787 20.445 L 18.792 21.926 L 18.792 20.573 Z M 18.791 15.96 L 16.662 15.125 L 16.662 15.1 L 18.792 14.266 L 18.792 12.862 L 15.786 14.405 L 12.829 12.96 L 12.829 14.307 L 14.914 15.117 L 14.914 15.141 L 12.829 15.939 L 12.829 17.278 L 15.787 15.833 L 18.792 17.314 L 18.792 15.96 Z M 18.791 11.348 L 16.662 10.513 L 16.662 10.488 L 18.792 9.654 L 18.792 8.25 L 15.785 9.793 L 12.828 8.348 L 12.828 9.695 L 14.913 10.505 L 14.913 10.529 L 12.828 11.327 L 12.828 12.666 L 15.785 11.221 L 18.79 12.702 L 18.79 11.348 Z M 18.791 6.736 L 16.662 5.901 L 16.662 5.876 L 18.792 5.042 L 18.792 3.638 L 15.786 5.181 L 12.829 3.736 L 12.829 5.083 L 14.914 5.893 L 14.914 5.917 L 12.829 6.715 L 12.829 8.054 L 15.786 6.609 L 18.791 8.09 L 18.791 6.736 Z"
        fill="#53627c"/>
</svg>
