<svg
    xmlns="http://www.w3.org/2000/svg"
    viewBox="0 0 24 25"
    id="vector">
    <path
        id="path"
        d="M 2 17.5 C 2 17.817 2.099 18.125 2.283 18.382 C 2.467 18.638 2.726 18.829 3.023 18.927 C 3.321 19.024 3.641 19.024 3.939 18.927 C 4.236 18.829 4.495 18.638 4.679 18.382 C 4.863 18.125 4.962 17.817 4.962 17.5 C 4.962 17.102 4.806 16.721 4.528 16.439 C 4.251 16.158 3.874 16 3.481 16 C 3.088 16 2.711 16.158 2.434 16.439 C 2.156 16.721 2 17.102 2 17.5 Z"
        fill="#53627c"
        fill-rule="evenodd"/>
    <path
        id="path_1"
        d="M 19.038 17.5 C 19.038 17.898 19.194 18.279 19.472 18.561 C 19.749 18.842 20.126 19 20.519 19 C 20.912 19 21.289 18.842 21.566 18.561 C 21.844 18.279 22 17.898 22 17.5 C 22 17.102 21.844 16.721 21.566 16.439 C 21.289 16.158 20.912 16 20.519 16 C 20.126 16 19.749 16.158 19.472 16.439 C 19.194 16.721 19.038 17.102 19.038 17.5 Z"
        fill="#53627c"
        fill-rule="evenodd"/>
    <path
        id="path_2"
        d="M 13.112 8.5 C 13.111 8.817 13.209 9.127 13.393 9.384 C 13.577 9.641 13.837 9.833 14.134 9.931 C 14.432 10.029 14.754 10.029 15.052 9.931 C 15.349 9.833 15.609 9.641 15.793 9.384 C 15.977 9.127 16.075 8.817 16.074 8.5 C 16.074 8.102 15.918 7.721 15.64 7.439 C 15.363 7.158 14.986 7 14.593 7 C 14.2 7 13.823 7.158 13.546 7.439 C 13.268 7.721 13.112 8.102 13.112 8.5 Z"
        fill="#53627c"
        fill-rule="evenodd"/>
    <path
        id="path_3"
        d="M 10.149 14.5 C 10.149 14.898 10.305 15.279 10.583 15.561 C 10.86 15.842 11.237 16 11.63 16 C 12.023 16 12.4 15.842 12.677 15.561 C 12.955 15.279 13.111 14.898 13.111 14.5 C 13.111 14.102 12.955 13.721 12.677 13.439 C 12.4 13.158 12.023 13 11.63 13 C 11.237 13 10.86 13.158 10.583 13.439 C 10.305 13.721 10.149 14.102 10.149 14.5 Z"
        fill="#53627c"
        fill-rule="evenodd"/>
    <path
        id="path_4"
        d="M 6.445 11.5 C 6.445 11.898 6.601 12.279 6.879 12.561 C 7.156 12.842 7.533 13 7.926 13 C 8.319 13 8.696 12.842 8.973 12.561 C 9.251 12.279 9.407 11.898 9.407 11.5 C 9.407 11.102 9.251 10.721 8.973 10.439 C 8.696 10.158 8.319 10 7.926 10 C 7.533 10 7.156 10.158 6.879 10.439 C 6.601 10.721 6.445 11.102 6.445 11.5 Z"
        fill="#53627c"
        fill-rule="evenodd"/>
</svg>
