<svg
    xmlns="http://www.w3.org/2000/svg"
    viewBox="0 0 24 25"
    id="vector">
    <path
        id="path"
        d="M 3.481 17.37 M 2 17.37 C 2 17.057 2.099 16.752 2.283 16.499 C 2.467 16.247 2.726 16.058 3.023 15.961 C 3.321 15.865 3.641 15.865 3.939 15.961 C 4.236 16.058 4.495 16.247 4.679 16.499 C 4.863 16.752 4.962 17.057 4.962 17.37 C 4.962 17.763 4.806 18.14 4.528 18.417 C 4.251 18.695 3.874 18.851 3.481 18.851 C 3.088 18.851 2.711 18.695 2.434 18.417 C 2.156 18.14 2 17.763 2 17.37"
        fill="#53627c"
        fill-rule="evenodd"/>
    <path
        id="path_1"
        d="M 20.519 17.37 M 19.038 17.37 C 19.038 16.977 19.194 16.6 19.472 16.323 C 19.749 16.045 20.126 15.889 20.519 15.889 C 20.912 15.889 21.289 16.045 21.566 16.323 C 21.844 16.6 22 16.977 22 17.37 C 22 17.763 21.844 18.14 21.566 18.417 C 21.289 18.695 20.912 18.851 20.519 18.851 C 20.126 18.851 19.749 18.695 19.472 18.417 C 19.194 18.14 19.038 17.763 19.038 17.37"
        fill="#53627c"
        fill-rule="evenodd"/>
    <path
        id="path_2"
        d="M 14.593 8.481 M 13.112 8.481 C 13.111 8.168 13.209 7.862 13.393 7.608 C 13.577 7.354 13.837 7.165 14.134 7.068 C 14.432 6.971 14.754 6.971 15.052 7.068 C 15.349 7.165 15.609 7.354 15.793 7.608 C 15.977 7.862 16.075 8.168 16.074 8.481 C 16.074 8.874 15.918 9.251 15.64 9.528 C 15.363 9.806 14.986 9.962 14.593 9.962 C 14.2 9.962 13.823 9.806 13.546 9.528 C 13.268 9.251 13.112 8.874 13.112 8.481"
        fill="#53627c"
        fill-rule="evenodd"/>
    <path
        id="path_3"
        d="M 11.63 14.407 M 10.149 14.407 C 10.148 14.094 10.246 13.788 10.43 13.534 C 10.614 13.28 10.874 13.091 11.171 12.994 C 11.469 12.897 11.791 12.897 12.089 12.994 C 12.386 13.091 12.646 13.28 12.83 13.534 C 13.014 13.788 13.112 14.094 13.111 14.407 C 13.112 14.72 13.014 15.026 12.83 15.28 C 12.646 15.534 12.386 15.723 12.089 15.82 C 11.791 15.917 11.469 15.917 11.171 15.82 C 10.874 15.723 10.614 15.534 10.43 15.28 C 10.246 15.026 10.148 14.72 10.149 14.407"
        fill="#53627c"
        fill-rule="evenodd"/>
    <path
        id="path_4"
        d="M 7.926 11.444 M 6.445 11.444 C 6.445 11.051 6.601 10.674 6.879 10.397 C 7.156 10.119 7.533 9.963 7.926 9.963 C 8.319 9.963 8.696 10.119 8.973 10.397 C 9.251 10.674 9.407 11.051 9.407 11.444 C 9.407 11.837 9.251 12.214 8.973 12.491 C 8.696 12.769 8.319 12.925 7.926 12.925 C 7.533 12.925 7.156 12.769 6.879 12.491 C 6.601 12.214 6.445 11.837 6.445 11.444"
        fill="#53627c"
        fill-rule="evenodd"/>
    <path
        id="path_5"
        d="M 11.219 13.696 L 14.578 7.513 L 20.935 17.094 L 20.102 17.647 L 14.664 9.45 L 11.47 15.331 L 8.125 12.089 L 3.875 17.679 L 3.088 17.062 L 8.011 10.587 Z"
        fill="#53627c"/>
</svg>
