<svg
    xmlns="http://www.w3.org/2000/svg"
    viewBox="0 0 24 25"
    id="vector">
    <path
        id="path"
        d="M 7.177 11.147 L 7.177 13.646 L 8.42 13.646 L 8.42 20.314 L 7.175 20.313 L 7.175 22.811 L 6.11 22.811 L 6.11 20.313 L 4.864 20.313 L 4.864 13.647 L 6.108 13.646 L 6.108 11.146 L 7.176 11.146 Z M 7.354 14.646 L 5.932 14.646 L 5.932 19.313 L 7.354 19.313 L 7.354 14.646 Z M 10.456 15.5 L 10.456 6.333 L 14.367 6.333 L 14.367 3 L 15.434 3 L 15.434 6.333 L 19.345 6.333 L 19.345 15.5 L 15.434 15.5 L 15.434 18.833 L 14.367 18.833 L 14.367 15.5 L 10.457 15.5 Z M 18.277 7.333 L 11.522 7.333 L 11.522 14.5 L 18.277 14.5 L 18.277 7.333 Z"
        fill="#53627c"/>
</svg>
